<?xml version="1.0" encoding="UTF-8" standalone="yes"?>
<svg xmlns="http://www.w3.org/2000/svg" height="452" width="452">
<script type="text/ecmascript">
      <![CDATA[
        var shown = 1;
        function click() {
             var seq = document.getElementById("seq");
             if (shown==1) {
               seq.setAttribute("style", "visibility: hidden");
               shown = 0;
             } else {
               seq.setAttribute("style", "visibility: visible");
               shown = 1;
             }
         }
        ]]>
</script>
  <rect style="stroke: white; fill: white" height="452" x="0" y="0" width="452" onclick="click(evt)" />
  <g transform="scale(0.261137,0.261137) translate(500.567383,755.665405)">
    <polyline style="stroke: black; fill: none; stroke-width: 1.5" id="outline" points="
      81.841,16.215
      81.464,31.210
      81.087,46.206
      73.589,46.017
      72.199,31.082
      70.808,16.146
      69.417,1.211
      68.026,-13.725
      79.150,-24.716
      80.554,-40.290
      71.577,-53.094
      56.456,-57.082
      42.332,-50.371
      35.873,-36.129
      40.129,-21.082
      53.091,-12.334
      54.482,2.602
      55.872,17.537
      57.263,32.472
      58.654,47.408
      54.395,61.142
      53.086,74.479
      41.144,65.401
      29.203,56.323
      17.261,47.246
      5.320,38.168
      -6.621,29.090
      -18.563,20.013
      -30.504,10.935
      -25.504,4.366
      -21.898,-3.617
      -20.059,-12.699
      -20.283,-22.471
      -22.770,-32.450
      -27.603,-42.105
      -34.742,-50.878
      -44.013,-58.220
      -55.111,-63.617
      -67.612,-66.627
      -64.684,-75.364
      -66.014,-84.345
      -71.190,-91.638
      -78.988,-95.729
      -87.657,-95.840
      -96.218,-108.157
      -104.780,-120.474
      -107.065,-129.191
      -113.398,-132.822
      -122.007,-145.105
      -130.616,-157.389
      -121.122,-172.221
      -123.314,-192.436
      -139.502,-208.877
      -145.853,-222.466
      -152.204,-236.055
      -158.373,-254.429
      -175.932,-246.223
      -165.793,-229.704
      -159.442,-216.115
      -153.091,-202.526
      -159.233,-198.221
      -167.842,-210.505
      -176.451,-222.788
      -185.060,-235.072
      -193.669,-247.355
      -202.278,-259.639
      -210.887,-271.923
      -219.496,-284.206
      -228.104,-296.490
      -236.713,-308.773
      -245.322,-321.057
      -253.931,-333.341
      -262.540,-345.624
      -271.149,-357.908
      -279.758,-370.191
      -288.367,-382.475
      -296.976,-394.758
      -305.585,-407.042
      -314.194,-419.326
      -326.477,-410.716
      -317.868,-398.433
      -309.259,-386.150
      -300.651,-373.866
      -292.042,-361.582
      -283.433,-349.299
      -274.824,-337.015
      -266.215,-324.732
      -257.606,-312.448
      -248.997,-300.164
      -240.388,-287.881
      -231.779,-275.597
      -223.170,-263.314
      -214.561,-251.030
      -205.952,-238.747
      -197.343,-226.463
      -188.734,-214.179
      -180.126,-201.896
      -171.517,-189.612
      -177.658,-185.308
      -181.378,-201.280
      -197.146,-205.785
      -208.742,-194.189
      -204.237,-178.421
      -188.265,-174.701
      -181.955,-158.158
      -169.654,-147.691
      -155.340,-144.791
      -142.900,-148.780
      -134.291,-136.497
      -125.682,-124.213
      -117.097,-111.913
      -108.535,-99.596
      -99.974,-87.279
      -99.834,-66.581
      -80.028,-58.209
      -85.164,-52.744
      -96.094,-63.017
      -110.696,-66.449
      -106.367,-52.088
      -95.438,-41.814
      -100.574,-36.349
      -106.281,-43.323
      -113.551,-43.987
      -121.546,-57.640
      -136.439,-57.399
      -138.532,-67.918
      -145.868,-75.440
      -155.906,-77.699
      -165.349,-74.197
      -178.349,-81.681
      -191.349,-89.164
      -204.349,-96.647
      -217.349,-104.130
      -225.094,-118.585
      -241.491,-118.835
      -249.673,-104.622
      -241.222,-90.568
      -224.832,-91.130
      -211.832,-83.647
      -198.832,-76.164
      -185.832,-68.681
      -172.832,-61.197
      -164.247,-43.796
      -144.022,-44.457
      -136.953,-31.347
      -121.135,-31.046
      -108.208,-23.437
      -110.726,-16.372
      -124.855,-21.409
      -138.985,-26.445
      -153.114,-31.481
      -167.243,-36.518
      -181.372,-41.554
      -196.127,-38.851
      -186.409,-27.425
      -172.279,-22.388
      -158.150,-17.352
      -144.021,-12.316
      -129.892,-7.279
      -115.762,-2.243
      -118.280,4.821
      -133.110,2.567
      -147.940,0.312
      -162.769,-1.943
      -177.599,-4.198
      -180.020,-10.227
      -184.103,-15.216
      -189.448,-18.728
      -195.551,-20.465
      -201.843,-20.298
      -207.748,-18.272
      -212.736,-14.602
      -216.367,-9.649
      -231.244,-11.559
      -246.122,-13.469
      -261.000,-15.379
      -266.179,-31.860
      -278.046,-44.336
      -294.142,-50.293
      -311.162,-48.560
      -325.632,-39.540
      -334.623,-25.117
      -349.485,-27.142
      -362.112,-37.606
      -377.392,-31.650
      -379.605,-15.401
      -366.476,-5.575
      -351.510,-12.279
      -336.648,-10.254
      -333.709,2.267
      -326.703,13.091
      -316.432,20.938
      -304.088,24.873
      -291.107,24.414
      -279.012,19.594
      -269.226,10.957
      -262.910,-0.501
      -248.032,1.409
      -233.154,3.319
      -218.276,5.229
      -201.349,20.895
      -179.853,10.632
      -165.024,12.887
      -150.194,15.141
      -135.365,17.396
      -120.535,19.651
      -91.034,41.166
      -59.610,40.118
      -39.582,22.877
      -27.640,31.954
      -15.699,41.032
      -3.758,50.109
      8.184,59.187
      20.125,68.265
      32.067,77.342
      44.008,86.420
      38.510,98.288
      35.498,111.017
      35.092,124.090
      37.309,136.981
      42.060,149.168
      49.152,160.158
      38.586,170.806
      28.021,181.454
      10.465,171.141
      -9.747,167.060
      -30.442,169.823
      -49.338,179.294
      -64.298,194.590
      -73.569,214.160
      -75.987,235.939
      -71.120,257.571
      -83.568,265.941
      -96.016,274.310
      -108.463,282.680
      -122.976,277.514
      -137.577,281.833
      -146.727,293.781
      -147.083,308.647
      -159.531,317.017
      -171.979,325.387
      -165.473,311.871
      -164.819,296.885
      -170.124,282.854
      -180.527,272.048
      -194.347,266.216
      -209.347,266.301
      -223.100,272.290
      -233.380,283.213
      -238.524,297.303
      -237.701,312.281
      -231.042,325.722
      -219.626,335.452
      -205.300,339.896
      -190.379,338.336
      -202.459,347.227
      -214.540,356.119
      -226.620,365.011
      -238.701,373.902
      -250.781,382.794
      -262.862,391.686
      -286.664,392.595
      -294.366,414.336
      -309.735,411.804
      -322.070,420.710
      -324.389,435.378
      -336.673,443.987
      -348.956,452.596
      -361.240,461.205
      -373.523,469.814
      -385.807,478.422
      -398.091,487.031
      -410.374,495.640
      -422.972,490.217
      -436.500,491.684
      -447.467,499.555
      -453.095,511.707
      -452.023,524.948
      -464.273,533.604
      -479.805,530.680
      -492.808,539.664
      -495.567,555.225
      -486.447,568.132
      -470.857,570.727
      -458.047,561.471
      -455.617,545.854
      -443.367,537.198
      -427.939,542.966
      -411.966,538.312
      -401.848,524.895
      -401.765,507.924
      -389.482,499.315
      -377.198,490.706
      -364.914,482.097
      -352.631,473.488
      -340.347,464.879
      -328.064,456.270
      -315.780,447.661
      -301.201,450.486
      -288.621,441.931
      -285.757,426.619
      -280.239,429.316
      -274.117,430.246
      -267.947,429.293
      -262.299,426.516
      -257.704,422.140
      -254.604,416.546
      -253.310,410.230
      -253.970,403.766
      -241.889,394.875
      -229.809,385.983
      -217.728,377.091
      -205.648,368.199
      -193.568,359.308
      -181.487,350.416
      -174.128,351.026
      -167.029,346.572
      -163.609,337.834
      -151.161,329.465
      -138.713,321.095
      -124.811,326.375
      -110.294,322.409
      -100.785,310.517
      -100.094,295.128
      -87.646,286.758
      -75.198,278.388
      -62.750,270.019
      -57.006,274.841
      -66.650,286.329
      -69.258,301.101
      -55.162,295.974
      -45.517,284.485
      -39.773,289.307
      -54.248,295.062
      -60.226,309.052
      -54.651,322.816
      -58.018,325.113
      -60.313,328.039
      -61.470,331.202
      -61.549,334.224
      -60.724,336.785
      -66.598,350.587
      -81.581,354.166
      -91.468,365.746
      -92.627,380.750
      -84.822,393.408
      -90.696,407.210
      -96.570,421.012
      -102.444,434.814
      -117.669,437.305
      -129.115,447.648
      -133.130,462.544
      -128.433,477.239
      -116.522,487.044
      -101.198,488.830
      -87.351,482.027
      -79.400,468.807
      -79.882,453.387
      -88.642,440.688
      -82.768,426.886
      -76.894,413.084
      -71.020,399.282
      -56.487,396.131
      -46.478,384.894
      -44.987,369.740
      -52.796,356.461
      -46.922,342.659
      -40.941,328.903
      -26.992,323.807
      -20.624,309.990
      -26.064,295.394
      -15.001,296.813
      -3.926,296.389
      6.859,294.155
      17.063,290.195
      26.413,284.640
      34.665,277.662
      41.605,269.469
      47.062,260.302
      50.905,250.425
      53.049,240.115
      53.458,229.663
      52.143,219.355
      49.164,209.472
      44.624,200.279
      38.668,192.019
      49.234,181.371
      59.799,170.724
      74.636,179.481
      91.251,184.038
      90.961,199.035
      90.671,214.032
      78.939,219.104
      70.000,228.173
      65.134,239.891
      65.019,252.532
      69.639,264.249
      78.285,273.344
      89.670,278.512
      89.495,293.511
      89.321,308.510
      89.147,323.509
      80.323,337.331
      88.120,351.758
      104.518,351.948
      112.648,337.706
      104.146,323.683
      104.320,308.684
      104.494,293.685
      104.669,278.686
      120.040,270.716
      129.244,255.944
      129.626,238.453
      120.989,223.136
      105.668,214.322
      105.958,199.325
      106.248,184.328
      114.370,183.022
      122.262,180.702
      129.798,177.405
      136.857,173.183
      143.328,168.104
      149.106,162.249
      154.100,155.713
      158.228,148.598
      161.426,141.019
      176.063,144.301
      190.693,147.610
      205.317,150.948
      219.941,154.286
      227.501,159.190
      234.628,157.608
      249.265,160.889
      263.902,164.170
      278.538,167.452
      293.175,170.733
      307.812,174.014
      322.448,177.295
      336.787,191.573
      354.935,184.703
      358.298,204.901
      370.074,221.595
      387.892,231.495
      408.196,232.672
      426.953,224.929
      440.456,209.842
      454.575,214.906
      468.695,219.970
      482.814,225.033
      496.934,230.097
      519.556,272.169
      527.232,286.003
      542.126,286.108
      554.888,293.990
      567.650,301.872
      580.413,309.754
      593.175,317.636
      605.937,325.518
      618.699,333.400
      631.461,341.282
      644.208,349.188
      656.940,357.120
      653.505,366.434
      654.572,377.651
      660.993,388.521
      672.503,396.483
      672.682,412.303
      685.737,419.474
      693.220,432.474
      686.768,446.586
      689.875,461.788
      701.348,472.236
      716.775,473.911
      730.223,466.170
      736.522,451.989
      733.249,436.821
      721.664,426.498
      706.220,424.991
      698.737,411.991
      699.093,397.100
      685.503,389.000
      690.629,383.525
      701.578,393.777
      712.528,404.029
      723.478,414.281
      733.730,403.331
      722.780,393.080
      711.831,382.828
      700.881,372.576
      706.007,367.101
      719.471,373.713
      732.935,380.326
      746.398,386.939
      759.862,393.551
      773.326,400.164
      786.790,406.777
      785.419,414.474
      785.509,422.284
      787.053,429.932
      789.994,437.149
      794.226,443.683
      799.597,449.307
      805.917,453.824
      812.960,457.079
      820.479,458.960
      828.209,459.405
      835.878,458.400
      843.216,455.984
      849.966,452.245
      855.894,447.318
      860.793,441.377
      874.503,447.464
      880.979,453.730
      888.277,453.548
      902.010,459.582
      915.743,465.616
      929.476,471.649
      933.567,476.596
      938.750,478.531
      943.338,477.676
      949.936,496.768
      968.240,504.550
      986.003,496.316
      999.712,502.403
      1013.410,508.516
      1022.834,521.224
      1037.613,519.375
      1051.299,525.514
      1049.987,541.257
      1057.577,556.833
      1073.315,567.224
      1093.684,568.280
      1106.909,575.357
      1120.135,582.434
      1133.360,589.512
      1146.586,596.589
      1159.811,603.666
      1172.939,610.922
      1185.968,618.355
      1198.997,625.788
      1209.759,638.888
      1225.326,632.174
      1223.184,615.356
      1206.430,612.759
      1193.401,605.326
      1180.372,597.893
      1195.071,594.900
      1204.432,583.180
      1204.102,568.183
      1194.234,556.886
      1179.418,554.542
      1166.545,562.242
      1161.603,576.404
      1166.888,590.441
      1153.663,583.364
      1140.438,576.286
      1127.212,569.209
      1113.987,562.132
      1100.761,555.054
      1103.645,548.131
      1117.492,553.898
      1132.367,551.969
      1123.259,540.051
      1109.412,534.284
      1112.295,527.360
      1115.654,542.347
      1126.068,553.636
      1140.736,558.190
      1155.713,554.785
      1166.969,544.335
      1171.477,529.653
      1168.025,514.687
      1157.540,503.464
      1142.844,499.001
      1127.889,502.501
      1116.698,513.021
      1105.380,501.578
      1091.306,496.016
      1077.144,496.577
      1065.284,502.408
      1057.439,511.829
      1043.753,505.689
      1035.308,493.420
      1019.550,494.830
      1014.790,489.295
      1005.799,488.693
      992.090,482.606
      991.153,472.592
      986.158,463.769
      977.923,457.719
      967.855,455.554
      957.704,457.718
      949.266,463.897
      935.510,457.917
      921.777,451.883
      908.044,445.849
      894.311,439.815
      880.590,433.755
      866.880,427.668
      866.128,405.438
      853.869,386.790
      833.626,377.223
      811.290,379.604
      793.402,393.313
      779.938,386.700
      766.475,380.088
      753.011,373.475
      739.547,366.862
      726.083,360.250
      712.620,353.637
      687.637,334.588
      664.871,344.388
      652.140,336.457
      648.171,330.329
      639.343,328.520
      626.581,320.638
      613.819,312.756
      601.057,304.874
      588.295,296.992
      575.532,289.110
      562.770,281.228
      550.008,273.346
      543.245,260.075
      527.438,259.407
      528.090,251.935
      543.033,253.239
      557.976,254.543
      572.920,255.847
      587.863,257.151
      602.806,258.456
      617.749,259.760
      632.692,261.064
      647.636,262.368
      648.939,247.424
      633.996,246.121
      619.053,244.816
      604.110,243.512
      589.167,242.208
      574.224,240.904
      559.280,239.600
      544.337,238.296
      529.394,236.992
      530.046,229.520
      543.140,237.635
      558.324,236.496
      569.791,226.751
      573.279,212.295
      587.213,206.743
      601.159,201.218
      615.115,195.719
      629.071,190.221
      644.746,192.362
      653.752,180.498
      667.708,175.000
      682.100,181.530
      696.865,175.893
      703.243,161.433
      697.450,146.728
      682.923,140.504
      668.280,146.452
      662.210,161.044
      648.254,166.542
      633.576,164.008
      623.573,176.265
      609.617,181.763
      595.661,187.262
      588.375,186.797
      581.661,192.808
      567.727,198.360
      555.253,190.263
      540.226,191.074
      528.420,200.689
      524.494,215.585
      531.529,202.337
      526.493,188.208
      512.664,182.397
      499.047,188.686
      494.506,202.983
      501.997,215.977
      487.878,210.914
      473.758,205.850
      459.639,200.786
      445.519,195.723
      446.162,190.314
      446.153,184.867
      445.491,179.461
      444.186,174.173
      442.258,169.079
      439.733,164.253
      451.128,154.498
      462.523,144.743
      473.917,134.988
      485.312,125.233
      496.707,115.478
      508.102,105.723
      522.559,110.909
      537.669,108.155
      549.367,98.204
      554.508,83.731
      551.707,68.629
      541.719,56.962
      527.229,51.867
      512.137,54.715
      500.501,64.740
      495.451,79.245
      498.347,94.328
      486.952,104.083
      475.557,113.838
      464.162,123.593
      452.768,133.348
      441.373,143.103
      429.978,152.858
      419.759,146.308
      408.148,142.690
      395.970,142.275
      384.094,145.104
      373.369,150.988
      364.569,159.517
      358.329,170.092
      353.812,161.091
      344.930,155.897
      334.435,156.394
      325.730,162.659
      311.093,159.377
      296.456,156.096
      281.819,152.815
      267.183,149.534
      252.546,146.253
      237.909,142.971
      223.279,139.662
      208.655,136.324
      194.031,132.986
      188.279,128.491
      179.344,129.664
      164.707,126.383
      169.964,106.914
      169.019,85.134
      161.042,63.085
      176.109,52.404
      173.300,35.030
      189.756,28.929
      196.519,13.102
      189.822,-2.384
      195.909,-16.093
      212.423,-17.694
      225.779,-27.377
      232.359,-42.402
      230.439,-58.597
      220.644,-71.518
      226.784,-85.204
      232.924,-98.890
      239.064,-112.576
      245.203,-126.261
      251.343,-139.947
      257.483,-153.633
      271.087,-162.791
      269.689,-179.130
      254.726,-185.843
      241.592,-176.023
      243.797,-159.773
      237.658,-146.087
      231.518,-132.401
      225.378,-118.715
      219.238,-105.030
      213.098,-91.344
      206.958,-77.658
      193.374,-77.182
      181.250,-70.891
      172.959,-59.954
      170.150,-46.452
      173.424,-32.988
      182.200,-22.180
      176.113,-8.471
      163.623,-5.600
      154.909,4.059
      153.288,17.162
      159.567,28.996
      148.475,33.628
      143.302,44.920
      147.286,57.105
      140.071,55.056
      118.427,48.911
      120.566,34.065
      122.706,19.218
      124.846,4.372
      126.986,-10.475
      129.126,-25.322
      131.266,-40.168
      133.406,-55.015
      135.546,-69.861
      137.686,-84.708
      148.247,-97.253
      142.410,-112.578
      126.179,-114.918
      116.251,-101.865
      122.839,-86.848
      120.699,-72.001
      118.560,-57.155
      116.420,-42.308
      114.280,-27.461
      112.140,-12.615
      110.000,2.232
      107.860,17.078
      105.720,31.925
      103.580,46.771
      96.082,46.583
      96.459,31.588
      96.837,16.592
      97.214,1.597
      97.591,-13.398
      82.596,-13.775
    " />
    <g style="stroke: black; stroke-width: 1" id="pairs">
      <line id="4,20" x1="73.589" y1="46.017" x2="58.654" y2="47.408" />
      <line id="5,19" x1="72.199" y1="31.082" x2="57.263" y2="32.472" />
      <line id="6,18" x1="70.808" y1="16.146" x2="55.872" y2="17.537" />
      <line id="7,17" x1="69.417" y1=" 1.211" x2="54.482" y2=" 2.602" />
      <line id="8,16" x1="68.026" y1="-13.725" x2="53.091" y2="-12.334" />
      <line id="22,216" x1="53.086" y1="74.479" x2="44.008" y2="86.420" />
      <line id="23,215" x1="41.144" y1="65.401" x2="32.067" y2="77.342" />
      <line id="24,214" x1="29.203" y1="56.323" x2="20.125" y2="68.265" />
      <line id="25,213" x1="17.261" y1="47.246" x2=" 8.184" y2="59.187" />
      <line id="26,212" x1=" 5.320" y1="38.168" x2="-3.758" y2="50.109" />
      <line id="27,211" x1="-6.621" y1="29.090" x2="-15.699" y2="41.032" />
      <line id="28,210" x1="-18.563" y1="20.013" x2="-27.640" y2="31.954" />
      <line id="29,209" x1="-30.504" y1="10.935" x2="-39.582" y2="22.877" />
      <line id="39,115" x1="-67.612" y1="-66.627" x2="-80.028" y2="-58.209" />
      <line id="44,113" x1="-87.657" y1="-95.840" x2="-99.974" y2="-87.279" />
      <line id="45,112" x1="-96.218" y1="-108.157" x2="-108.535" y2="-99.596" />
      <line id="46,111" x1="-104.780" y1="-120.474" x2="-117.097" y2="-111.913" />
      <line id="48,110" x1="-113.398" y1="-132.822" x2="-125.682" y2="-124.213" />
      <line id="49,109" x1="-122.007" y1="-145.105" x2="-134.291" y2="-136.497" />
      <line id="50,108" x1="-130.616" y1="-157.389" x2="-142.900" y2="-148.780" />
      <line id="53,60" x1="-139.502" y1="-208.877" x2="-153.091" y2="-202.526" />
      <line id="54,59" x1="-145.853" y1="-222.466" x2="-159.442" y2="-216.115" />
      <line id="55,58" x1="-152.204" y1="-236.055" x2="-165.793" y2="-229.704" />
      <line id="99,104" x1="-177.658" y1="-185.308" x2="-188.265" y2="-174.701" />
      <line id="121,147" x1="-100.574" y1="-36.349" x2="-108.208" y2="-23.437" />
      <line id="123,146" x1="-113.551" y1="-43.987" x2="-121.135" y2="-31.046" />
      <line id="125,144" x1="-136.439" y1="-57.399" x2="-144.022" y2="-44.457" />
      <line id="129,142" x1="-165.349" y1="-74.197" x2="-172.832" y2="-61.197" />
      <line id="130,141" x1="-178.349" y1="-81.681" x2="-185.832" y2="-68.681" />
      <line id="131,140" x1="-191.349" y1="-89.164" x2="-198.832" y2="-76.164" />
      <line id="132,139" x1="-204.349" y1="-96.647" x2="-211.832" y2="-83.647" />
      <line id="133,138" x1="-217.349" y1="-104.130" x2="-224.832" y2="-91.130" />
      <line id="161,206" x1="-118.280" y1=" 4.821" x2="-120.535" y2="19.651" />
      <line id="162,205" x1="-133.110" y1=" 2.567" x2="-135.365" y2="17.396" />
      <line id="163,204" x1="-147.940" y1=" 0.312" x2="-150.194" y2="15.141" />
      <line id="164,203" x1="-162.769" y1="-1.943" x2="-165.024" y2="12.887" />
      <line id="165,202" x1="-177.599" y1="-4.198" x2="-179.853" y2="10.632" />
      <line id="173,200" x1="-216.367" y1="-9.649" x2="-218.276" y2=" 5.229" />
      <line id="174,199" x1="-231.244" y1="-11.559" x2="-233.154" y2=" 3.319" />
      <line id="175,198" x1="-246.122" y1="-13.469" x2="-248.032" y2=" 1.409" />
      <line id="176,197" x1="-261.000" y1="-15.379" x2="-262.910" y2="-0.501" />
      <line id="182,189" x1="-334.623" y1="-25.117" x2="-336.648" y2="-10.254" />
      <line id="183,188" x1="-349.485" y1="-27.142" x2="-351.510" y2="-12.279" />
      <line id="222,388" x1="49.152" y1="160.158" x2="59.799" y2="170.724" />
      <line id="223,387" x1="38.586" y1="170.806" x2="49.234" y2="181.371" />
      <line id="224,386" x1="28.021" y1="181.454" x2="38.668" y2="192.019" />
      <line id="232,327" x1="-71.120" y1="257.571" x2="-62.750" y2="270.019" />
      <line id="233,326" x1="-83.568" y1="265.941" x2="-75.198" y2="278.388" />
      <line id="234,325" x1="-96.016" y1="274.310" x2="-87.646" y2="286.758" />
      <line id="235,324" x1="-108.463" y1="282.680" x2="-100.094" y2="295.128" />
      <line id="239,320" x1="-147.083" y1="308.647" x2="-138.713" y2="321.095" />
      <line id="240,319" x1="-159.531" y1="317.017" x2="-151.161" y2="329.465" />
      <line id="241,318" x1="-171.979" y1="325.387" x2="-163.609" y2="337.834" />
      <line id="255,315" x1="-190.379" y1="338.336" x2="-181.487" y2="350.416" />
      <line id="256,314" x1="-202.459" y1="347.227" x2="-193.568" y2="359.308" />
      <line id="257,313" x1="-214.540" y1="356.119" x2="-205.648" y2="368.199" />
      <line id="258,312" x1="-226.620" y1="365.011" x2="-217.728" y2="377.091" />
      <line id="259,311" x1="-238.701" y1="373.902" x2="-229.809" y2="385.983" />
      <line id="260,310" x1="-250.781" y1="382.794" x2="-241.889" y2="394.875" />
      <line id="261,309" x1="-262.862" y1="391.686" x2="-253.970" y2="403.766" />
      <line id="263,301" x1="-294.366" y1="414.336" x2="-285.757" y2="426.619" />
      <line id="266,298" x1="-324.389" y1="435.378" x2="-315.780" y2="447.661" />
      <line id="267,297" x1="-336.673" y1="443.987" x2="-328.064" y2="456.270" />
      <line id="268,296" x1="-348.956" y1="452.596" x2="-340.347" y2="464.879" />
      <line id="269,295" x1="-361.240" y1="461.205" x2="-352.631" y2="473.488" />
      <line id="270,294" x1="-373.523" y1="469.814" x2="-364.914" y2="482.097" />
      <line id="271,293" x1="-385.807" y1="478.422" x2="-377.198" y2="490.706" />
      <line id="272,292" x1="-398.091" y1="487.031" x2="-389.482" y2="499.315" />
      <line id="273,291" x1="-410.374" y1="495.640" x2="-401.765" y2="507.924" />
      <line id="278,287" x1="-452.023" y1="524.948" x2="-443.367" y2="537.198" />
      <line id="279,286" x1="-464.273" y1="533.604" x2="-455.617" y2="545.854" />
      <line id="333,371" x1="-39.773" y1="289.307" x2="-26.064" y2="295.394" />
      <line id="336,368" x1="-54.651" y1="322.816" x2="-40.941" y2="328.903" />
      <line id="341,367" x1="-60.724" y1="336.785" x2="-46.922" y2="342.659" />
      <line id="342,366" x1="-66.598" y1="350.587" x2="-52.796" y2="356.461" />
      <line id="346,362" x1="-84.822" y1="393.408" x2="-71.020" y2="399.282" />
      <line id="347,361" x1="-90.696" y1="407.210" x2="-76.894" y2="413.084" />
      <line id="348,360" x1="-96.570" y1="421.012" x2="-82.768" y2="426.886" />
      <line id="349,359" x1="-102.444" y1="434.814" x2="-88.642" y2="440.688" />
      <line id="390,417" x1="91.251" y1="184.038" x2="106.248" y2="184.328" />
      <line id="391,416" x1="90.961" y1="199.035" x2="105.958" y2="199.325" />
      <line id="392,415" x1="90.671" y1="214.032" x2="105.668" y2="214.322" />
      <line id="399,410" x1="89.670" y1="278.512" x2="104.669" y2="278.686" />
      <line id="400,409" x1="89.495" y1="293.511" x2="104.494" y2="293.685" />
      <line id="401,408" x1="89.321" y1="308.510" x2="104.320" y2="308.684" />
      <line id="402,407" x1="89.147" y1="323.509" x2="104.146" y2="323.683" />
      <line id="426,735" x1="161.426" y1="141.019" x2="164.707" y2="126.383" />
      <line id="427,734" x1="176.063" y1="144.301" x2="179.344" y2="129.664" />
      <line id="428,732" x1="190.693" y1="147.610" x2="194.031" y2="132.986" />
      <line id="429,731" x1="205.317" y1="150.948" x2="208.655" y2="136.324" />
      <line id="430,730" x1="219.941" y1="154.286" x2="223.279" y2="139.662" />
      <line id="432,729" x1="234.628" y1="157.608" x2="237.909" y2="142.971" />
      <line id="433,728" x1="249.265" y1="160.889" x2="252.546" y2="146.253" />
      <line id="434,727" x1="263.902" y1="164.170" x2="267.183" y2="149.534" />
      <line id="435,726" x1="278.538" y1="167.452" x2="281.819" y2="152.815" />
      <line id="436,725" x1="293.175" y1="170.733" x2="296.456" y2="156.096" />
      <line id="437,724" x1="307.812" y1="174.014" x2="311.093" y2="159.377" />
      <line id="438,723" x1="322.448" y1="177.295" x2="325.730" y2="162.659" />
      <line id="440,719" x1="354.935" y1="184.703" x2="358.329" y2="170.092" />
      <line id="446,683" x1="440.456" y1="209.842" x2="445.519" y2="195.723" />
      <line id="447,682" x1="454.575" y1="214.906" x2="459.639" y2="200.786" />
      <line id="448,681" x1="468.695" y1="219.970" x2="473.758" y2="205.850" />
      <line id="449,680" x1="482.814" y1="225.033" x2="487.878" y2="210.914" />
      <line id="450,679" x1="496.934" y1="230.097" x2="501.997" y2="215.977" />
      <line id="451,624" x1="519.556" y1="272.169" x2="527.438" y2="259.407" />
      <line id="453,622" x1="542.126" y1="286.108" x2="550.008" y2="273.346" />
      <line id="454,621" x1="554.888" y1="293.990" x2="562.770" y2="281.228" />
      <line id="455,620" x1="567.650" y1="301.872" x2="575.532" y2="289.110" />
      <line id="456,619" x1="580.413" y1="309.754" x2="588.295" y2="296.992" />
      <line id="457,618" x1="593.175" y1="317.636" x2="601.057" y2="304.874" />
      <line id="458,617" x1="605.937" y1="325.518" x2="613.819" y2="312.756" />
      <line id="459,616" x1="618.699" y1="333.400" x2="626.581" y2="320.638" />
      <line id="460,615" x1="631.461" y1="341.282" x2="639.343" y2="328.520" />
      <line id="461,613" x1="644.208" y1="349.188" x2="652.140" y2="336.457" />
      <line id="462,612" x1="656.940" y1="357.120" x2="664.871" y2="344.388" />
      <line id="466,481" x1="672.503" y1="396.483" x2="685.503" y2="389.000" />
      <line id="468,479" x1="685.737" y1="419.474" x2="698.737" y2="411.991" />
      <line id="469,478" x1="693.220" y1="432.474" x2="706.220" y2="424.991" />
      <line id="490,610" x1="706.007" y1="367.101" x2="712.620" y2="353.637" />
      <line id="491,609" x1="719.471" y1="373.713" x2="726.083" y2="360.250" />
      <line id="492,608" x1="732.935" y1="380.326" x2="739.547" y2="366.862" />
      <line id="493,607" x1="746.398" y1="386.939" x2="753.011" y2="373.475" />
      <line id="494,606" x1="759.862" y1="393.551" x2="766.475" y2="380.088" />
      <line id="495,605" x1="773.326" y1="400.164" x2="779.938" y2="386.700" />
      <line id="496,604" x1="786.790" y1="406.777" x2="793.402" y2="393.313" />
      <line id="511,599" x1="860.793" y1="441.377" x2="866.880" y2="427.668" />
      <line id="512,598" x1="874.503" y1="447.464" x2="880.590" y2="433.755" />
      <line id="514,597" x1="888.277" y1="453.548" x2="894.311" y2="439.815" />
      <line id="515,596" x1="902.010" y1="459.582" x2="908.044" y2="445.849" />
      <line id="516,595" x1="915.743" y1="465.616" x2="921.777" y2="451.883" />
      <line id="517,594" x1="929.476" y1="471.649" x2="935.510" y2="457.917" />
      <line id="520,593" x1="943.338" y1="477.676" x2="949.266" y2="463.897" />
      <line id="523,587" x1="986.003" y1="496.316" x2="992.090" y2="482.606" />
      <line id="524,586" x1="999.712" y1="502.403" x2="1005.799" y2="488.693" />
      <line id="525,584" x1="1013.410" y1="508.516" x2="1019.550" y2="494.830" />
      <line id="527,582" x1="1037.613" y1="519.375" x2="1043.753" y2="505.689" />
      <line id="528,581" x1="1051.299" y1="525.514" x2="1057.439" y2="511.829" />
      <line id="532,559" x1="1093.684" y1="568.280" x2="1100.761" y2="555.054" />
      <line id="533,558" x1="1106.909" y1="575.357" x2="1113.987" y2="562.132" />
      <line id="534,557" x1="1120.135" y1="582.434" x2="1127.212" y2="569.209" />
      <line id="535,556" x1="1133.360" y1="589.512" x2="1140.438" y2="576.286" />
      <line id="536,555" x1="1146.586" y1="596.589" x2="1153.663" y2="583.364" />
      <line id="537,554" x1="1159.811" y1="603.666" x2="1166.888" y2="590.441" />
      <line id="538,546" x1="1172.939" y1="610.922" x2="1180.372" y2="597.893" />
      <line id="539,545" x1="1185.968" y1="618.355" x2="1193.401" y2="605.326" />
      <line id="540,544" x1="1198.997" y1="625.788" x2="1206.430" y2="612.759" />
      <line id="565,576" x1="1112.295" y1="527.360" x2="1116.698" y2="513.021" />
      <line id="643,673" x1="530.046" y1="229.520" x2="524.494" y2="215.585" />
      <line id="647,669" x1="573.279" y1="212.295" x2="567.727" y2="198.360" />
      <line id="648,668" x1="587.213" y1="206.743" x2="581.661" y2="192.808" />
      <line id="649,666" x1="601.159" y1="201.218" x2="595.661" y2="187.262" />
      <line id="650,665" x1="615.115" y1="195.719" x2="609.617" y2="181.763" />
      <line id="651,664" x1="629.071" y1="190.221" x2="623.573" y2="176.265" />
      <line id="653,662" x1="653.752" y1="180.498" x2="648.254" y2="166.542" />
      <line id="654,661" x1="667.708" y1="175.000" x2="662.210" y2="161.044" />
      <line id="689,712" x1="439.733" y1="164.253" x2="429.978" y2="152.858" />
      <line id="690,711" x1="451.128" y1="154.498" x2="441.373" y2="143.103" />
      <line id="691,710" x1="462.523" y1="144.743" x2="452.768" y2="133.348" />
      <line id="692,709" x1="473.917" y1="134.988" x2="464.162" y2="123.593" />
      <line id="693,708" x1="485.312" y1="125.233" x2="475.557" y2="113.838" />
      <line id="694,707" x1="496.707" y1="115.478" x2="486.952" y2="104.083" />
      <line id="695,706" x1="508.102" y1="105.723" x2="498.347" y2="94.328" />
      <line id="738,780" x1="161.042" y1="63.085" x2="147.286" y2="57.105" />
      <line id="740,777" x1="173.300" y1="35.030" x2="159.567" y2="28.996" />
      <line id="743,773" x1="189.822" y1="-2.384" x2="176.113" y2="-8.471" />
      <line id="744,772" x1="195.909" y1="-16.093" x2="182.200" y2="-22.180" />
      <line id="749,766" x1="220.644" y1="-71.518" x2="206.958" y2="-77.658" />
      <line id="750,765" x1="226.784" y1="-85.204" x2="213.098" y2="-91.344" />
      <line id="751,764" x1="232.924" y1="-98.890" x2="219.238" y2="-105.030" />
      <line id="752,763" x1="239.064" y1="-112.576" x2="225.378" y2="-118.715" />
      <line id="753,762" x1="245.203" y1="-126.261" x2="231.518" y2="-132.401" />
      <line id="754,761" x1="251.343" y1="-139.947" x2="237.658" y2="-146.087" />
      <line id="755,760" x1="257.483" y1="-153.633" x2="243.797" y2="-159.773" />
      <line id="782,805" x1="118.427" y1="48.911" x2="103.580" y2="46.771" />
      <line id="783,804" x1="120.566" y1="34.065" x2="105.720" y2="31.925" />
      <line id="784,803" x1="122.706" y1="19.218" x2="107.860" y2="17.078" />
      <line id="785,802" x1="124.846" y1=" 4.372" x2="110.000" y2=" 2.232" />
      <line id="786,801" x1="126.986" y1="-10.475" x2="112.140" y2="-12.615" />
      <line id="787,800" x1="129.126" y1="-25.322" x2="114.280" y2="-27.461" />
      <line id="788,799" x1="131.266" y1="-40.168" x2="116.420" y2="-42.308" />
      <line id="789,798" x1="133.406" y1="-55.015" x2="118.560" y2="-57.155" />
      <line id="790,797" x1="135.546" y1="-69.861" x2="120.699" y2="-72.001" />
      <line id="791,796" x1="137.686" y1="-84.708" x2="122.839" y2="-86.848" />
    </g>
    <g style="font-family: SansSerif" transform="translate(-4.6, 4)" id="seq">
      <text x="81.841" y="16.215">A</text>
      <text x="81.464" y="31.210">U</text>
      <text x="81.087" y="46.206">G</text>
      <text x="73.589" y="46.017">G</text>
      <text x="72.199" y="31.082">G</text>
      <text x="70.808" y="16.146">U</text>
      <text x="69.417" y="1.211">U</text>
      <text x="68.026" y="-13.725">U</text>
      <text x="79.150" y="-24.716">U</text>
      <text x="80.554" y="-40.290">G</text>
      <text x="71.577" y="-53.094">A</text>
      <text x="56.456" y="-57.082">U</text>
      <text x="42.332" y="-50.371">U</text>
      <text x="35.873" y="-36.129">U</text>
      <text x="40.129" y="-21.082">U</text>
      <text x="53.091" y="-12.334">G</text>
      <text x="54.482" y="2.602">G</text>
      <text x="55.872" y="17.537">G</text>
      <text x="57.263" y="32.472">C</text>
      <text x="58.654" y="47.408">U</text>
      <text x="54.395" y="61.142">G</text>
      <text x="53.086" y="74.479">A</text>
      <text x="41.144" y="65.401">U</text>
      <text x="29.203" y="56.323">A</text>
      <text x="17.261" y="47.246">A</text>
      <text x="5.320" y="38.168">U</text>
      <text x="-6.621" y="29.090">A</text>
      <text x="-18.563" y="20.013">G</text>
      <text x="-30.504" y="10.935">C</text>
      <text x="-25.504" y="4.366">A</text>
      <text x="-21.898" y="-3.617">U</text>
      <text x="-20.059" y="-12.699">A</text>
      <text x="-20.283" y="-22.471">G</text>
      <text x="-22.770" y="-32.450">A</text>
      <text x="-27.603" y="-42.105">U</text>
      <text x="-34.742" y="-50.878">U</text>
      <text x="-44.013" y="-58.220">A</text>
      <text x="-55.111" y="-63.617">G</text>
      <text x="-67.612" y="-66.627">U</text>
      <text x="-64.684" y="-75.364">A</text>
      <text x="-66.014" y="-84.345">A</text>
      <text x="-71.190" y="-91.638">U</text>
      <text x="-78.988" y="-95.729">U</text>
      <text x="-87.657" y="-95.840">C</text>
      <text x="-96.218" y="-108.157">A</text>
      <text x="-104.780" y="-120.474">C</text>
      <text x="-107.065" y="-129.191">A</text>
      <text x="-113.398" y="-132.822">U</text>
      <text x="-122.007" y="-145.105">G</text>
      <text x="-130.616" y="-157.389">C</text>
      <text x="-121.122" y="-172.221">A</text>
      <text x="-123.314" y="-192.436">A</text>
      <text x="-139.502" y="-208.877">A</text>
      <text x="-145.853" y="-222.466">U</text>
      <text x="-152.204" y="-236.055">G</text>
      <text x="-158.373" y="-254.429">A</text>
      <text x="-175.932" y="-246.223">U</text>
      <text x="-165.793" y="-229.704">U</text>
      <text x="-159.442" y="-216.115">G</text>
      <text x="-153.091" y="-202.526">U</text>
      <text x="-159.233" y="-198.221">G</text>
      <text x="-167.842" y="-210.505">C</text>
      <text x="-176.451" y="-222.788">U</text>
      <text x="-185.060" y="-235.072">U</text>
      <text x="-193.669" y="-247.355">A</text>
      <text x="-202.278" y="-259.639">A</text>
      <text x="-210.887" y="-271.923">U</text>
      <text x="-219.496" y="-284.206">A</text>
      <text x="-228.104" y="-296.490">A</text>
      <text x="-236.713" y="-308.773">A</text>
      <text x="-245.322" y="-321.057">A</text>
      <text x="-253.931" y="-333.341">G</text>
      <text x="-262.540" y="-345.624">U</text>
      <text x="-271.149" y="-357.908">A</text>
      <text x="-279.758" y="-370.191">G</text>
      <text x="-288.367" y="-382.475">U</text>
      <text x="-296.976" y="-394.758">U</text>
      <text x="-305.585" y="-407.042">G</text>
      <text x="-314.194" y="-419.326">U</text>
      <text x="-326.477" y="-410.716">G</text>
      <text x="-317.868" y="-398.433">U</text>
      <text x="-309.259" y="-386.150">A</text>
      <text x="-300.651" y="-373.866">U</text>
      <text x="-292.042" y="-361.582">U</text>
      <text x="-283.433" y="-349.299">G</text>
      <text x="-274.824" y="-337.015">A</text>
      <text x="-266.215" y="-324.732">A</text>
      <text x="-257.606" y="-312.448">A</text>
      <text x="-248.997" y="-300.164">A</text>
      <text x="-240.388" y="-287.881">A</text>
      <text x="-231.779" y="-275.597">G</text>
      <text x="-223.170" y="-263.314">U</text>
      <text x="-214.561" y="-251.030">G</text>
      <text x="-205.952" y="-238.747">G</text>
      <text x="-197.343" y="-226.463">A</text>
      <text x="-188.734" y="-214.179">A</text>
      <text x="-180.126" y="-201.896">G</text>
      <text x="-171.517" y="-189.612">A</text>
      <text x="-177.658" y="-185.308">U</text>
      <text x="-181.378" y="-201.280">A</text>
      <text x="-197.146" y="-205.785">A</text>
      <text x="-208.742" y="-194.189">A</text>
      <text x="-204.237" y="-178.421">A</text>
      <text x="-188.265" y="-174.701">A</text>
      <text x="-181.955" y="-158.158">G</text>
      <text x="-169.654" y="-147.691">C</text>
      <text x="-155.340" y="-144.791">A</text>
      <text x="-142.900" y="-148.780">G</text>
      <text x="-134.291" y="-136.497">U</text>
      <text x="-125.682" y="-124.213">A</text>
      <text x="-117.097" y="-111.913">G</text>
      <text x="-108.535" y="-99.596">U</text>
      <text x="-99.974" y="-87.279">G</text>
      <text x="-99.834" y="-66.581">U</text>
      <text x="-80.028" y="-58.209">A</text>
      <text x="-85.164" y="-52.744">G</text>
      <text x="-96.094" y="-63.017">A</text>
      <text x="-110.696" y="-66.449">G</text>
      <text x="-106.367" y="-52.088">A</text>
      <text x="-95.438" y="-41.814">A</text>
      <text x="-100.574" y="-36.349">U</text>
      <text x="-106.281" y="-43.323">U</text>
      <text x="-113.551" y="-43.987">A</text>
      <text x="-121.546" y="-57.640">U</text>
      <text x="-136.439" y="-57.399">G</text>
      <text x="-138.532" y="-67.918">A</text>
      <text x="-145.868" y="-75.440">G</text>
      <text x="-155.906" y="-77.699">A</text>
      <text x="-165.349" y="-74.197">U</text>
      <text x="-178.349" y="-81.681">G</text>
      <text x="-191.349" y="-89.164">A</text>
      <text x="-204.349" y="-96.647">U</text>
      <text x="-217.349" y="-104.130">A</text>
      <text x="-225.094" y="-118.585">G</text>
      <text x="-241.491" y="-118.835">A</text>
      <text x="-249.673" y="-104.622">A</text>
      <text x="-241.222" y="-90.568">A</text>
      <text x="-224.832" y="-91.130">U</text>
      <text x="-211.832" y="-83.647">A</text>
      <text x="-198.832" y="-76.164">U</text>
      <text x="-185.832" y="-68.681">U</text>
      <text x="-172.832" y="-61.197">G</text>
      <text x="-164.247" y="-43.796">A</text>
      <text x="-144.022" y="-44.457">U</text>
      <text x="-136.953" y="-31.347">C</text>
      <text x="-121.135" y="-31.046">U</text>
      <text x="-108.208" y="-23.437">A</text>
      <text x="-110.726" y="-16.372">G</text>
      <text x="-124.855" y="-21.409">G</text>
      <text x="-138.985" y="-26.445">C</text>
      <text x="-153.114" y="-31.481">U</text>
      <text x="-167.243" y="-36.518">A</text>
      <text x="-181.372" y="-41.554">A</text>
      <text x="-196.127" y="-38.851">U</text>
      <text x="-186.409" y="-27.425">C</text>
      <text x="-172.279" y="-22.388">U</text>
      <text x="-158.150" y="-17.352">U</text>
      <text x="-144.021" y="-12.316">U</text>
      <text x="-129.892" y="-7.279">U</text>
      <text x="-115.762" y="-2.243">A</text>
      <text x="-118.280" y="4.821">A</text>
      <text x="-133.110" y="2.567">G</text>
      <text x="-147.940" y="0.312">G</text>
      <text x="-162.769" y="-1.943">A</text>
      <text x="-177.599" y="-4.198">U</text>
      <text x="-180.020" y="-10.227">A</text>
      <text x="-184.103" y="-15.216">G</text>
      <text x="-189.448" y="-18.728">A</text>
      <text x="-195.551" y="-20.465">U</text>
      <text x="-201.843" y="-20.298">A</text>
      <text x="-207.748" y="-18.272">A</text>
      <text x="-212.736" y="-14.602">A</text>
      <text x="-216.367" y="-9.649">A</text>
      <text x="-231.244" y="-11.559">U</text>
      <text x="-246.122" y="-13.469">U</text>
      <text x="-261.000" y="-15.379">G</text>
      <text x="-266.179" y="-31.860">U</text>
      <text x="-278.046" y="-44.336">G</text>
      <text x="-294.142" y="-50.293">C</text>
      <text x="-311.162" y="-48.560">C</text>
      <text x="-325.632" y="-39.540">A</text>
      <text x="-334.623" y="-25.117">G</text>
      <text x="-349.485" y="-27.142">C</text>
      <text x="-362.112" y="-37.606">A</text>
      <text x="-377.392" y="-31.650">U</text>
      <text x="-379.605" y="-15.401">C</text>
      <text x="-366.476" y="-5.575">U</text>
      <text x="-351.510" y="-12.279">G</text>
      <text x="-336.648" y="-10.254">C</text>
      <text x="-333.709" y="2.267">G</text>
      <text x="-326.703" y="13.091">G</text>
      <text x="-316.432" y="20.938">U</text>
      <text x="-304.088" y="24.873">U</text>
      <text x="-291.107" y="24.414">A</text>
      <text x="-279.012" y="19.594">U</text>
      <text x="-269.226" y="10.957">A</text>
      <text x="-262.910" y="-0.501">C</text>
      <text x="-248.032" y="1.409">A</text>
      <text x="-233.154" y="3.319">A</text>
      <text x="-218.276" y="5.229">U</text>
      <text x="-201.349" y="20.895">G</text>
      <text x="-179.853" y="10.632">G</text>
      <text x="-165.024" y="12.887">U</text>
      <text x="-150.194" y="15.141">C</text>
      <text x="-135.365" y="17.396">C</text>
      <text x="-120.535" y="19.651">U</text>
      <text x="-91.034" y="41.166">A</text>
      <text x="-59.610" y="40.118">A</text>
      <text x="-39.582" y="22.877">G</text>
      <text x="-27.640" y="31.954">U</text>
      <text x="-15.699" y="41.032">U</text>
      <text x="-3.758" y="50.109">A</text>
      <text x="8.184" y="59.187">U</text>
      <text x="20.125" y="68.265">U</text>
      <text x="32.067" y="77.342">G</text>
      <text x="44.008" y="86.420">U</text>
      <text x="38.510" y="98.288">U</text>
      <text x="35.498" y="111.017">U</text>
      <text x="35.092" y="124.090">U</text>
      <text x="37.309" y="136.981">G</text>
      <text x="42.060" y="149.168">U</text>
      <text x="49.152" y="160.158">G</text>
      <text x="38.586" y="170.806">G</text>
      <text x="28.021" y="181.454">A</text>
      <text x="10.465" y="171.141">G</text>
      <text x="-9.747" y="167.060">A</text>
      <text x="-30.442" y="169.823">A</text>
      <text x="-49.338" y="179.294">A</text>
      <text x="-64.298" y="194.590">A</text>
      <text x="-73.569" y="214.160">U</text>
      <text x="-75.987" y="235.939">U</text>
      <text x="-71.120" y="257.571">U</text>
      <text x="-83.568" y="265.941">U</text>
      <text x="-96.016" y="274.310">U</text>
      <text x="-108.463" y="282.680">G</text>
      <text x="-122.976" y="277.514">U</text>
      <text x="-137.577" y="281.833">U</text>
      <text x="-146.727" y="293.781">G</text>
      <text x="-147.083" y="308.647">U</text>
      <text x="-159.531" y="317.017">A</text>
      <text x="-171.979" y="325.387">U</text>
      <text x="-165.473" y="311.871">U</text>
      <text x="-164.819" y="296.885">A</text>
      <text x="-170.124" y="282.854">U</text>
      <text x="-180.527" y="272.048">A</text>
      <text x="-194.347" y="266.216">A</text>
      <text x="-209.347" y="266.301">U</text>
      <text x="-223.100" y="272.290">A</text>
      <text x="-233.380" y="283.213">U</text>
      <text x="-238.524" y="297.303">G</text>
      <text x="-237.701" y="312.281">G</text>
      <text x="-231.042" y="325.722">G</text>
      <text x="-219.626" y="335.452">A</text>
      <text x="-205.300" y="339.896">A</text>
      <text x="-190.379" y="338.336">U</text>
      <text x="-202.459" y="347.227">U</text>
      <text x="-214.540" y="356.119">G</text>
      <text x="-226.620" y="365.011">A</text>
      <text x="-238.701" y="373.902">U</text>
      <text x="-250.781" y="382.794">A</text>
      <text x="-262.862" y="391.686">A</text>
      <text x="-286.664" y="392.595">A</text>
      <text x="-294.366" y="414.336">A</text>
      <text x="-309.735" y="411.804">A</text>
      <text x="-322.070" y="420.710">A</text>
      <text x="-324.389" y="435.378">G</text>
      <text x="-336.673" y="443.987">U</text>
      <text x="-348.956" y="452.596">A</text>
      <text x="-361.240" y="461.205">U</text>
      <text x="-373.523" y="469.814">A</text>
      <text x="-385.807" y="478.422">A</text>
      <text x="-398.091" y="487.031">A</text>
      <text x="-410.374" y="495.640">A</text>
      <text x="-422.972" y="490.217">A</text>
      <text x="-436.500" y="491.684">U</text>
      <text x="-447.467" y="499.555">A</text>
      <text x="-453.095" y="511.707">U</text>
      <text x="-452.023" y="524.948">G</text>
      <text x="-464.273" y="533.604">G</text>
      <text x="-479.805" y="530.680">G</text>
      <text x="-492.808" y="539.664">U</text>
      <text x="-495.567" y="555.225">U</text>
      <text x="-486.447" y="568.132">A</text>
      <text x="-470.857" y="570.727">A</text>
      <text x="-458.047" y="561.471">A</text>
      <text x="-455.617" y="545.854">U</text>
      <text x="-443.367" y="537.198">C</text>
      <text x="-427.939" y="542.966">U</text>
      <text x="-411.966" y="538.312">U</text>
      <text x="-401.848" y="524.895">U</text>
      <text x="-401.765" y="507.924">U</text>
      <text x="-389.482" y="499.315">U</text>
      <text x="-377.198" y="490.706">U</text>
      <text x="-364.914" y="482.097">U</text>
      <text x="-352.631" y="473.488">A</text>
      <text x="-340.347" y="464.879">U</text>
      <text x="-328.064" y="456.270">A</text>
      <text x="-315.780" y="447.661">U</text>
      <text x="-301.201" y="450.486">A</text>
      <text x="-288.621" y="441.931">A</text>
      <text x="-285.757" y="426.619">U</text>
      <text x="-280.239" y="429.316">A</text>
      <text x="-274.117" y="430.246">A</text>
      <text x="-267.947" y="429.293">A</text>
      <text x="-262.299" y="426.516">A</text>
      <text x="-257.704" y="422.140">A</text>
      <text x="-254.604" y="416.546">U</text>
      <text x="-253.310" y="410.230">U</text>
      <text x="-253.970" y="403.766">U</text>
      <text x="-241.889" y="394.875">U</text>
      <text x="-229.809" y="385.983">A</text>
      <text x="-217.728" y="377.091">U</text>
      <text x="-205.648" y="368.199">C</text>
      <text x="-193.568" y="359.308">A</text>
      <text x="-181.487" y="350.416">A</text>
      <text x="-174.128" y="351.026">C</text>
      <text x="-167.029" y="346.572">A</text>
      <text x="-163.609" y="337.834">A</text>
      <text x="-151.161" y="329.465">U</text>
      <text x="-138.713" y="321.095">A</text>
      <text x="-124.811" y="326.375">U</text>
      <text x="-110.294" y="322.409">U</text>
      <text x="-100.785" y="310.517">U</text>
      <text x="-100.094" y="295.128">C</text>
      <text x="-87.646" y="286.758">A</text>
      <text x="-75.198" y="278.388">A</text>
      <text x="-62.750" y="270.019">A</text>
      <text x="-57.006" y="274.841">G</text>
      <text x="-66.650" y="286.329">A</text>
      <text x="-69.258" y="301.101">A</text>
      <text x="-55.162" y="295.974">A</text>
      <text x="-45.517" y="284.485">A</text>
      <text x="-39.773" y="289.307">A</text>
      <text x="-54.248" y="295.062">U</text>
      <text x="-60.226" y="309.052">U</text>
      <text x="-54.651" y="322.816">G</text>
      <text x="-58.018" y="325.113">A</text>
      <text x="-60.313" y="328.039">U</text>
      <text x="-61.470" y="331.202">A</text>
      <text x="-61.549" y="334.224">A</text>
      <text x="-60.724" y="336.785">A</text>
      <text x="-66.598" y="350.587">A</text>
      <text x="-81.581" y="354.166">A</text>
      <text x="-91.468" y="365.746">A</text>
      <text x="-92.627" y="380.750">C</text>
      <text x="-84.822" y="393.408">U</text>
      <text x="-90.696" y="407.210">G</text>
      <text x="-96.570" y="421.012">G</text>
      <text x="-102.444" y="434.814">G</text>
      <text x="-117.669" y="437.305">A</text>
      <text x="-129.115" y="447.648">U</text>
      <text x="-133.130" y="462.544">U</text>
      <text x="-128.433" y="477.239">A</text>
      <text x="-116.522" y="487.044">G</text>
      <text x="-101.198" y="488.830">A</text>
      <text x="-87.351" y="482.027">U</text>
      <text x="-79.400" y="468.807">A</text>
      <text x="-79.882" y="453.387">C</text>
      <text x="-88.642" y="440.688">C</text>
      <text x="-82.768" y="426.886">C</text>
      <text x="-76.894" y="413.084">C</text>
      <text x="-71.020" y="399.282">G</text>
      <text x="-56.487" y="396.131">U</text>
      <text x="-46.478" y="384.894">U</text>
      <text x="-44.987" y="369.740">A</text>
      <text x="-52.796" y="356.461">U</text>
      <text x="-46.922" y="342.659">U</text>
      <text x="-40.941" y="328.903">C</text>
      <text x="-26.992" y="323.807">U</text>
      <text x="-20.624" y="309.990">U</text>
      <text x="-26.064" y="295.394">U</text>
      <text x="-15.001" y="296.813">A</text>
      <text x="-3.926" y="296.389">G</text>
      <text x="6.859" y="294.155">G</text>
      <text x="17.063" y="290.195">U</text>
      <text x="26.413" y="284.640">A</text>
      <text x="34.665" y="277.662">A</text>
      <text x="41.605" y="269.469">A</text>
      <text x="47.062" y="260.302">A</text>
      <text x="50.905" y="250.425">U</text>
      <text x="53.049" y="240.115">U</text>
      <text x="53.458" y="229.663">U</text>
      <text x="52.143" y="219.355">A</text>
      <text x="49.164" y="209.472">U</text>
      <text x="44.624" y="200.279">U</text>
      <text x="38.668" y="192.019">U</text>
      <text x="49.234" y="181.371">C</text>
      <text x="59.799" y="170.724">C</text>
      <text x="74.636" y="179.481">A</text>
      <text x="91.251" y="184.038">A</text>
      <text x="90.961" y="199.035">A</text>
      <text x="90.671" y="214.032">G</text>
      <text x="78.939" y="219.104">U</text>
      <text x="70.000" y="228.173">A</text>
      <text x="65.134" y="239.891">U</text>
      <text x="65.019" y="252.532">U</text>
      <text x="69.639" y="264.249">A</text>
      <text x="78.285" y="273.344">U</text>
      <text x="89.670" y="278.512">G</text>
      <text x="89.495" y="293.511">A</text>
      <text x="89.321" y="308.510">G</text>
      <text x="89.147" y="323.509">A</text>
      <text x="80.323" y="337.331">G</text>
      <text x="88.120" y="351.758">A</text>
      <text x="104.518" y="351.948">G</text>
      <text x="112.648" y="337.706">A</text>
      <text x="104.146" y="323.683">U</text>
      <text x="104.320" y="308.684">C</text>
      <text x="104.494" y="293.685">U</text>
      <text x="104.669" y="278.686">U</text>
      <text x="120.040" y="270.716">A</text>
      <text x="129.244" y="255.944">A</text>
      <text x="129.626" y="238.453">A</text>
      <text x="120.989" y="223.136">A</text>
      <text x="105.668" y="214.322">C</text>
      <text x="105.958" y="199.325">U</text>
      <text x="106.248" y="184.328">U</text>
      <text x="114.370" y="183.022">A</text>
      <text x="122.262" y="180.702">A</text>
      <text x="129.798" y="177.405">A</text>
      <text x="136.857" y="173.183">A</text>
      <text x="143.328" y="168.104">A</text>
      <text x="149.106" y="162.249">A</text>
      <text x="154.100" y="155.713">U</text>
      <text x="158.228" y="148.598">U</text>
      <text x="161.426" y="141.019">U</text>
      <text x="176.063" y="144.301">G</text>
      <text x="190.693" y="147.610">G</text>
      <text x="205.317" y="150.948">C</text>
      <text x="219.941" y="154.286">G</text>
      <text x="227.501" y="159.190">G</text>
      <text x="234.628" y="157.608">U</text>
      <text x="249.265" y="160.889">G</text>
      <text x="263.902" y="164.170">U</text>
      <text x="278.538" y="167.452">U</text>
      <text x="293.175" y="170.733">U</text>
      <text x="307.812" y="174.014">U</text>
      <text x="322.448" y="177.295">A</text>
      <text x="336.787" y="191.573">C</text>
      <text x="354.935" y="184.703">U</text>
      <text x="358.298" y="204.901">U</text>
      <text x="370.074" y="221.595">C</text>
      <text x="387.892" y="231.495">U</text>
      <text x="408.196" y="232.672">U</text>
      <text x="426.953" y="224.929">A</text>
      <text x="440.456" y="209.842">U</text>
      <text x="454.575" y="214.906">U</text>
      <text x="468.695" y="219.970">A</text>
      <text x="482.814" y="225.033">G</text>
      <text x="496.934" y="230.097">G</text>
      <text x="519.556" y="272.169">G</text>
      <text x="527.232" y="286.003">G</text>
      <text x="542.126" y="286.108">A</text>
      <text x="554.888" y="293.990">A</text>
      <text x="567.650" y="301.872">C</text>
      <text x="580.413" y="309.754">U</text>
      <text x="593.175" y="317.636">U</text>
      <text x="605.937" y="325.518">G</text>
      <text x="618.699" y="333.400">U</text>
      <text x="631.461" y="341.282">C</text>
      <text x="644.208" y="349.188">C</text>
      <text x="656.940" y="357.120">U</text>
      <text x="653.505" y="366.434">G</text>
      <text x="654.572" y="377.651">U</text>
      <text x="660.993" y="388.521">A</text>
      <text x="672.503" y="396.483">A</text>
      <text x="672.682" y="412.303">U</text>
      <text x="685.737" y="419.474">C</text>
      <text x="693.220" y="432.474">G</text>
      <text x="686.768" y="446.586">A</text>
      <text x="689.875" y="461.788">U</text>
      <text x="701.348" y="472.236">A</text>
      <text x="716.775" y="473.911">A</text>
      <text x="730.223" y="466.170">U</text>
      <text x="736.522" y="451.989">C</text>
      <text x="733.249" y="436.821">C</text>
      <text x="721.664" y="426.498">U</text>
      <text x="706.220" y="424.991">C</text>
      <text x="698.737" y="411.991">G</text>
      <text x="699.093" y="397.100">U</text>
      <text x="685.503" y="389.000">U</text>
      <text x="690.629" y="383.525">A</text>
      <text x="701.578" y="393.777">U</text>
      <text x="712.528" y="404.029">A</text>
      <text x="723.478" y="414.281">A</text>
      <text x="733.730" y="403.331">U</text>
      <text x="722.780" y="393.080">A</text>
      <text x="711.831" y="382.828">U</text>
      <text x="700.881" y="372.576">A</text>
      <text x="706.007" y="367.101">C</text>
      <text x="719.471" y="373.713">C</text>
      <text x="732.935" y="380.326">U</text>
      <text x="746.398" y="386.939">U</text>
      <text x="759.862" y="393.551">C</text>
      <text x="773.326" y="400.164">U</text>
      <text x="786.790" y="406.777">U</text>
      <text x="785.419" y="414.474">U</text>
      <text x="785.509" y="422.284">U</text>
      <text x="787.053" y="429.932">G</text>
      <text x="789.994" y="437.149">U</text>
      <text x="794.226" y="443.683">U</text>
      <text x="799.597" y="449.307">U</text>
      <text x="805.917" y="453.824">A</text>
      <text x="812.960" y="457.079">A</text>
      <text x="820.479" y="458.960">A</text>
      <text x="828.209" y="459.405">G</text>
      <text x="835.878" y="458.400">U</text>
      <text x="843.216" y="455.984">U</text>
      <text x="849.966" y="452.245">C</text>
      <text x="855.894" y="447.318">A</text>
      <text x="860.793" y="441.377">G</text>
      <text x="874.503" y="447.464">U</text>
      <text x="880.979" y="453.730">U</text>
      <text x="888.277" y="453.548">U</text>
      <text x="902.010" y="459.582">G</text>
      <text x="915.743" y="465.616">U</text>
      <text x="929.476" y="471.649">G</text>
      <text x="933.567" y="476.596">U</text>
      <text x="938.750" y="478.531">A</text>
      <text x="943.338" y="477.676">U</text>
      <text x="949.936" y="496.768">U</text>
      <text x="968.240" y="504.550">U</text>
      <text x="986.003" y="496.316">U</text>
      <text x="999.712" y="502.403">C</text>
      <text x="1013.410" y="508.516">G</text>
      <text x="1022.834" y="521.224">U</text>
      <text x="1037.613" y="519.375">C</text>
      <text x="1051.299" y="525.514">A</text>
      <text x="1049.987" y="541.257">U</text>
      <text x="1057.577" y="556.833">A</text>
      <text x="1073.315" y="567.224">A</text>
      <text x="1093.684" y="568.280">A</text>
      <text x="1106.909" y="575.357">U</text>
      <text x="1120.135" y="582.434">U</text>
      <text x="1133.360" y="589.512">U</text>
      <text x="1146.586" y="596.589">A</text>
      <text x="1159.811" y="603.666">U</text>
      <text x="1172.939" y="610.922">C</text>
      <text x="1185.968" y="618.355">U</text>
      <text x="1198.997" y="625.788">U</text>
      <text x="1209.759" y="638.888">U</text>
      <text x="1225.326" y="632.174">A</text>
      <text x="1223.184" y="615.356">A</text>
      <text x="1206.430" y="612.759">G</text>
      <text x="1193.401" y="605.326">A</text>
      <text x="1180.372" y="597.893">G</text>
      <text x="1195.071" y="594.900">G</text>
      <text x="1204.432" y="583.180">U</text>
      <text x="1204.102" y="568.183">G</text>
      <text x="1194.234" y="556.886">A</text>
      <text x="1179.418" y="554.542">G</text>
      <text x="1166.545" y="562.242">A</text>
      <text x="1161.603" y="576.404">A</text>
      <text x="1166.888" y="590.441">A</text>
      <text x="1153.663" y="583.364">U</text>
      <text x="1140.438" y="576.286">A</text>
      <text x="1127.212" y="569.209">G</text>
      <text x="1113.987" y="562.132">G</text>
      <text x="1100.761" y="555.054">U</text>
      <text x="1103.645" y="548.131">G</text>
      <text x="1117.492" y="553.898">A</text>
      <text x="1132.367" y="551.969">A</text>
      <text x="1123.259" y="540.051">A</text>
      <text x="1109.412" y="534.284">U</text>
      <text x="1112.295" y="527.360">A</text>
      <text x="1115.654" y="542.347">U</text>
      <text x="1126.068" y="553.636">A</text>
      <text x="1140.736" y="558.190">U</text>
      <text x="1155.713" y="554.785">A</text>
      <text x="1166.969" y="544.335">G</text>
      <text x="1171.477" y="529.653">U</text>
      <text x="1168.025" y="514.687">U</text>
      <text x="1157.540" y="503.464">A</text>
      <text x="1142.844" y="499.001">U</text>
      <text x="1127.889" y="502.501">A</text>
      <text x="1116.698" y="513.021">U</text>
      <text x="1105.380" y="501.578">U</text>
      <text x="1091.306" y="496.016">G</text>
      <text x="1077.144" y="496.577">U</text>
      <text x="1065.284" y="502.408">A</text>
      <text x="1057.439" y="511.829">U</text>
      <text x="1043.753" y="505.689">G</text>
      <text x="1035.308" y="493.420">U</text>
      <text x="1019.550" y="494.830">C</text>
      <text x="1014.790" y="489.295">A</text>
      <text x="1005.799" y="488.693">G</text>
      <text x="992.090" y="482.606">A</text>
      <text x="991.153" y="472.592">U</text>
      <text x="986.158" y="463.769">C</text>
      <text x="977.923" y="457.719">A</text>
      <text x="967.855" y="455.554">A</text>
      <text x="957.704" y="457.718">U</text>
      <text x="949.266" y="463.897">G</text>
      <text x="935.510" y="457.917">U</text>
      <text x="921.777" y="451.883">G</text>
      <text x="908.044" y="445.849">C</text>
      <text x="894.311" y="439.815">A</text>
      <text x="880.590" y="433.755">G</text>
      <text x="866.880" y="427.668">C</text>
      <text x="866.128" y="405.438">U</text>
      <text x="853.869" y="386.790">U</text>
      <text x="833.626" y="377.223">A</text>
      <text x="811.290" y="379.604">U</text>
      <text x="793.402" y="393.313">A</text>
      <text x="779.938" y="386.700">G</text>
      <text x="766.475" y="380.088">G</text>
      <text x="753.011" y="373.475">A</text>
      <text x="739.547" y="366.862">A</text>
      <text x="726.083" y="360.250">G</text>
      <text x="712.620" y="353.637">G</text>
      <text x="687.637" y="334.588">A</text>
      <text x="664.871" y="344.388">A</text>
      <text x="652.140" y="336.457">G</text>
      <text x="648.171" y="330.329">A</text>
      <text x="639.343" y="328.520">G</text>
      <text x="626.581" y="320.638">A</text>
      <text x="613.819" y="312.756">U</text>
      <text x="601.057" y="304.874">G</text>
      <text x="588.295" y="296.992">A</text>
      <text x="575.532" y="289.110">G</text>
      <text x="562.770" y="281.228">U</text>
      <text x="550.008" y="273.346">U</text>
      <text x="543.245" y="260.075">A</text>
      <text x="527.438" y="259.407">C</text>
      <text x="528.090" y="251.935">A</text>
      <text x="543.033" y="253.239">U</text>
      <text x="557.976" y="254.543">U</text>
      <text x="572.920" y="255.847">A</text>
      <text x="587.863" y="257.151">G</text>
      <text x="602.806" y="258.456">A</text>
      <text x="617.749" y="259.760">A</text>
      <text x="632.692" y="261.064">U</text>
      <text x="647.636" y="262.368">A</text>
      <text x="648.939" y="247.424">G</text>
      <text x="633.996" y="246.121">U</text>
      <text x="619.053" y="244.816">A</text>
      <text x="604.110" y="243.512">U</text>
      <text x="589.167" y="242.208">U</text>
      <text x="574.224" y="240.904">U</text>
      <text x="559.280" y="239.600">A</text>
      <text x="544.337" y="238.296">G</text>
      <text x="529.394" y="236.992">U</text>
      <text x="530.046" y="229.520">U</text>
      <text x="543.140" y="237.635">G</text>
      <text x="558.324" y="236.496">G</text>
      <text x="569.791" y="226.751">U</text>
      <text x="573.279" y="212.295">U</text>
      <text x="587.213" y="206.743">U</text>
      <text x="601.159" y="201.218">A</text>
      <text x="615.115" y="195.719">C</text>
      <text x="629.071" y="190.221">A</text>
      <text x="644.746" y="192.362">U</text>
      <text x="653.752" y="180.498">G</text>
      <text x="667.708" y="175.000">U</text>
      <text x="682.100" y="181.530">U</text>
      <text x="696.865" y="175.893">G</text>
      <text x="703.243" y="161.433">A</text>
      <text x="697.450" y="146.728">G</text>
      <text x="682.923" y="140.504">A</text>
      <text x="668.280" y="146.452">U</text>
      <text x="662.210" y="161.044">G</text>
      <text x="648.254" y="166.542">U</text>
      <text x="633.576" y="164.008">U</text>
      <text x="623.573" y="176.265">U</text>
      <text x="609.617" y="181.763">G</text>
      <text x="595.661" y="187.262">U</text>
      <text x="588.375" y="186.797">A</text>
      <text x="581.661" y="192.808">A</text>
      <text x="567.727" y="198.360">A</text>
      <text x="555.253" y="190.263">U</text>
      <text x="540.226" y="191.074">A</text>
      <text x="528.420" y="200.689">A</text>
      <text x="524.494" y="215.585">A</text>
      <text x="531.529" y="202.337">U</text>
      <text x="526.493" y="188.208">U</text>
      <text x="512.664" y="182.397">G</text>
      <text x="499.047" y="188.686">G</text>
      <text x="494.506" y="202.983">A</text>
      <text x="501.997" y="215.977">C</text>
      <text x="487.878" y="210.914">U</text>
      <text x="473.758" y="205.850">U</text>
      <text x="459.639" y="200.786">A</text>
      <text x="445.519" y="195.723">A</text>
      <text x="446.162" y="190.314">A</text>
      <text x="446.153" y="184.867">A</text>
      <text x="445.491" y="179.461">G</text>
      <text x="444.186" y="174.173">U</text>
      <text x="442.258" y="169.079">A</text>
      <text x="439.733" y="164.253">A</text>
      <text x="451.128" y="154.498">A</text>
      <text x="462.523" y="144.743">A</text>
      <text x="473.917" y="134.988">A</text>
      <text x="485.312" y="125.233">G</text>
      <text x="496.707" y="115.478">A</text>
      <text x="508.102" y="105.723">A</text>
      <text x="522.559" y="110.909">A</text>
      <text x="537.669" y="108.155">U</text>
      <text x="549.367" y="98.204">U</text>
      <text x="554.508" y="83.731">U</text>
      <text x="551.707" y="68.629">A</text>
      <text x="541.719" y="56.962">U</text>
      <text x="527.229" y="51.867">G</text>
      <text x="512.137" y="54.715">A</text>
      <text x="500.501" y="64.740">A</text>
      <text x="495.451" y="79.245">G</text>
      <text x="498.347" y="94.328">U</text>
      <text x="486.952" y="104.083">U</text>
      <text x="475.557" y="113.838">U</text>
      <text x="464.162" y="123.593">U</text>
      <text x="452.768" y="133.348">U</text>
      <text x="441.373" y="143.103">U</text>
      <text x="429.978" y="152.858">U</text>
      <text x="419.759" y="146.308">G</text>
      <text x="408.148" y="142.690">A</text>
      <text x="395.970" y="142.275">A</text>
      <text x="384.094" y="145.104">A</text>
      <text x="373.369" y="150.988">A</text>
      <text x="364.569" y="159.517">A</text>
      <text x="358.329" y="170.092">G</text>
      <text x="353.812" y="161.091">C</text>
      <text x="344.930" y="155.897">U</text>
      <text x="334.435" y="156.394">C</text>
      <text x="325.730" y="162.659">U</text>
      <text x="311.093" y="159.377">A</text>
      <text x="296.456" y="156.096">A</text>
      <text x="281.819" y="152.815">A</text>
      <text x="267.183" y="149.534">A</text>
      <text x="252.546" y="146.253">U</text>
      <text x="237.909" y="142.971">G</text>
      <text x="223.279" y="139.662">U</text>
      <text x="208.655" y="136.324">G</text>
      <text x="194.031" y="132.986">U</text>
      <text x="188.279" y="128.491">A</text>
      <text x="179.344" y="129.664">C</text>
      <text x="164.707" y="126.383">A</text>
      <text x="169.964" y="106.914">A</text>
      <text x="169.019" y="85.134">A</text>
      <text x="161.042" y="63.085">U</text>
      <text x="176.109" y="52.404">C</text>
      <text x="173.300" y="35.030">G</text>
      <text x="189.756" y="28.929">C</text>
      <text x="196.519" y="13.102">C</text>
      <text x="189.822" y="-2.384">C</text>
      <text x="195.909" y="-16.093">G</text>
      <text x="212.423" y="-17.694">U</text>
      <text x="225.779" y="-27.377">C</text>
      <text x="232.359" y="-42.402">G</text>
      <text x="230.439" y="-58.597">C</text>
      <text x="220.644" y="-71.518">U</text>
      <text x="226.784" y="-85.204">C</text>
      <text x="232.924" y="-98.890">U</text>
      <text x="239.064" y="-112.576">C</text>
      <text x="245.203" y="-126.261">G</text>
      <text x="251.343" y="-139.947">U</text>
      <text x="257.483" y="-153.633">U</text>
      <text x="271.087" y="-162.791">U</text>
      <text x="269.689" y="-179.130">A</text>
      <text x="254.726" y="-185.843">A</text>
      <text x="241.592" y="-176.023">A</text>
      <text x="243.797" y="-159.773">G</text>
      <text x="237.658" y="-146.087">A</text>
      <text x="231.518" y="-132.401">U</text>
      <text x="225.378" y="-118.715">G</text>
      <text x="219.238" y="-105.030">A</text>
      <text x="213.098" y="-91.344">G</text>
      <text x="206.958" y="-77.658">A</text>
      <text x="193.374" y="-77.182">U</text>
      <text x="181.250" y="-70.891">A</text>
      <text x="172.959" y="-59.954">A</text>
      <text x="170.150" y="-46.452">G</text>
      <text x="173.424" y="-32.988">U</text>
      <text x="182.200" y="-22.180">C</text>
      <text x="176.113" y="-8.471">G</text>
      <text x="163.623" y="-5.600">U</text>
      <text x="154.909" y="4.059">A</text>
      <text x="153.288" y="17.162">A</text>
      <text x="159.567" y="28.996">C</text>
      <text x="148.475" y="33.628">A</text>
      <text x="143.302" y="44.920">U</text>
      <text x="147.286" y="57.105">A</text>
      <text x="140.071" y="55.056">G</text>
      <text x="118.427" y="48.911">U</text>
      <text x="120.566" y="34.065">A</text>
      <text x="122.706" y="19.218">A</text>
      <text x="124.846" y="4.372">G</text>
      <text x="126.986" y="-10.475">C</text>
      <text x="129.126" y="-25.322">G</text>
      <text x="131.266" y="-40.168">U</text>
      <text x="133.406" y="-55.015">A</text>
      <text x="135.546" y="-69.861">A</text>
      <text x="137.686" y="-84.708">U</text>
      <text x="148.247" y="-97.253">G</text>
      <text x="142.410" y="-112.578">G</text>
      <text x="126.179" y="-114.918">A</text>
      <text x="116.251" y="-101.865">A</text>
      <text x="122.839" y="-86.848">A</text>
      <text x="120.699" y="-72.001">U</text>
      <text x="118.560" y="-57.155">U</text>
      <text x="116.420" y="-42.308">G</text>
      <text x="114.280" y="-27.461">U</text>
      <text x="112.140" y="-12.615">G</text>
      <text x="110.000" y="2.232">C</text>
      <text x="107.860" y="17.078">U</text>
      <text x="105.720" y="31.925">U</text>
      <text x="103.580" y="46.771">G</text>
      <text x="96.082" y="46.583">G</text>
      <text x="96.459" y="31.588">U</text>
      <text x="96.837" y="16.592">G</text>
      <text x="97.214" y="1.597">A</text>
      <text x="97.591" y="-13.398">G</text>
      <text x="82.596" y="-13.775">A</text>
    </g>
  </g>
</svg>
