<?xml version="1.0" encoding="UTF-8" standalone="yes"?>
<svg xmlns="http://www.w3.org/2000/svg" height="452" width="452">
<script type="text/ecmascript">
      <![CDATA[
        var shown = 1;
        function click() {
             var seq = document.getElementById("seq");
             if (shown==1) {
               seq.setAttribute("style", "visibility: hidden");
               shown = 0;
             } else {
               seq.setAttribute("style", "visibility: visible");
               shown = 1;
             }
         }
        ]]>
</script>
  <rect style="stroke: white; fill: white" height="452" x="0" y="0" width="452" onclick="click(evt)" />
  <g transform="scale(1.662660,1.662660) translate(26.423920,46.824615)">
    <polyline style="stroke: black; fill: none; stroke-width: 1.5" id="outline" points="
      97.120,-23.370
      96.437,-8.385
      95.755,6.599
      95.072,21.584
      94.389,36.568
      85.096,38.925
      76.578,43.326
      69.281,49.545
      63.583,57.256
      59.782,66.058
      44.879,64.354
      29.976,62.650
      15.073,60.947
      4.005,49.333
      -11.962,50.888
      -20.581,64.420
      -15.238,79.547
      -0.034,84.666
      13.369,75.850
      28.272,77.553
      43.175,79.257
      58.078,80.961
      65.677,102.432
      83.364,116.783
      79.979,131.396
      76.593,146.009
      73.208,160.622
      69.823,175.235
      55.803,182.162
      49.563,196.500
      54.050,211.480
      67.144,220.029
      82.663,218.109
      93.280,206.628
      93.981,191.006
      84.436,178.620
      87.821,164.007
      91.206,149.394
      94.592,134.781
      97.977,120.168
      110.532,118.875
      122.136,113.912
      131.743,105.726
      138.484,95.056
      141.753,82.866
      156.718,81.842
      171.683,80.819
      186.648,79.795
      201.613,78.771
      213.359,89.346
      229.137,88.434
      239.586,76.577
      238.508,60.810
      226.541,50.486
      210.786,51.731
      200.589,63.806
      185.624,64.830
      170.659,65.854
      155.694,66.877
      140.729,67.901
      134.344,54.007
      123.409,43.318
      109.374,37.251
      110.056,22.267
      110.739,7.282
      111.422,-7.702
      112.105,-22.687
      115.170,-41.825
    " />
    <g style="stroke: black; stroke-width: 1" id="pairs">
      <line id="1,67" x1="97.120" y1="-23.370" x2="112.105" y2="-22.687" />
      <line id="2,66" x1="96.437" y1="-8.385" x2="111.422" y2="-7.702" />
      <line id="3,65" x1="95.755" y1=" 6.599" x2="110.739" y2=" 7.282" />
      <line id="4,64" x1="95.072" y1="21.584" x2="110.056" y2="22.267" />
      <line id="5,63" x1="94.389" y1="36.568" x2="109.374" y2="37.251" />
      <line id="10,22" x1="59.782" y1="66.058" x2="58.078" y2="80.961" />
      <line id="11,21" x1="44.879" y1="64.354" x2="43.175" y2="79.257" />
      <line id="12,20" x1="29.976" y1="62.650" x2="28.272" y2="77.553" />
      <line id="13,19" x1="15.073" y1="60.947" x2="13.369" y2="75.850" />
      <line id="24,40" x1="83.364" y1="116.783" x2="97.977" y2="120.168" />
      <line id="25,39" x1="79.979" y1="131.396" x2="94.592" y2="134.781" />
      <line id="26,38" x1="76.593" y1="146.009" x2="91.206" y2="149.394" />
      <line id="27,37" x1="73.208" y1="160.622" x2="87.821" y2="164.007" />
      <line id="28,36" x1="69.823" y1="175.235" x2="84.436" y2="178.620" />
      <line id="45,60" x1="141.753" y1="82.866" x2="140.729" y2="67.901" />
      <line id="46,59" x1="156.718" y1="81.842" x2="155.694" y2="66.877" />
      <line id="47,58" x1="171.683" y1="80.819" x2="170.659" y2="65.854" />
      <line id="48,57" x1="186.648" y1="79.795" x2="185.624" y2="64.830" />
      <line id="49,56" x1="201.613" y1="78.771" x2="200.589" y2="63.806" />
    </g>
    <g style="font-family: SansSerif" transform="translate(-4.6, 4)" id="seq">
      <text x="97.120" y="-23.370">G</text>
      <text x="96.437" y="-8.385">G</text>
      <text x="95.755" y="6.599">U</text>
      <text x="95.072" y="21.584">G</text>
      <text x="94.389" y="36.568">A</text>
      <text x="85.096" y="38.925">U</text>
      <text x="76.578" y="43.326">U</text>
      <text x="69.281" y="49.545">U</text>
      <text x="63.583" y="57.256">A</text>
      <text x="59.782" y="66.058">C</text>
      <text x="44.879" y="64.354">U</text>
      <text x="29.976" y="62.650">U</text>
      <text x="15.073" y="60.947">U</text>
      <text x="4.005" y="49.333">A</text>
      <text x="-11.962" y="50.888">A</text>
      <text x="-20.581" y="64.420">A</text>
      <text x="-15.238" y="79.547">U</text>
      <text x="-0.034" y="84.666">A</text>
      <text x="13.369" y="75.850">A</text>
      <text x="28.272" y="77.553">A</text>
      <text x="43.175" y="79.257">A</text>
      <text x="58.078" y="80.961">G</text>
      <text x="65.677" y="102.432">G</text>
      <text x="83.364" y="116.783">U</text>
      <text x="79.979" y="131.396">A</text>
      <text x="76.593" y="146.009">U</text>
      <text x="73.208" y="160.622">A</text>
      <text x="69.823" y="175.235">G</text>
      <text x="55.803" y="182.162">U</text>
      <text x="49.563" y="196.500">U</text>
      <text x="54.050" y="211.480">U</text>
      <text x="67.144" y="220.029">G</text>
      <text x="82.663" y="218.109">C</text>
      <text x="93.280" y="206.628">A</text>
      <text x="93.981" y="191.006">C</text>
      <text x="84.436" y="178.620">C</text>
      <text x="87.821" y="164.007">U</text>
      <text x="91.206" y="149.394">A</text>
      <text x="94.592" y="134.781">U</text>
      <text x="97.977" y="120.168">A</text>
      <text x="110.532" y="118.875">A</text>
      <text x="122.136" y="113.912">A</text>
      <text x="131.743" y="105.726">A</text>
      <text x="138.484" y="95.056">U</text>
      <text x="141.753" y="82.866">A</text>
      <text x="156.718" y="81.842">G</text>
      <text x="171.683" y="80.819">A</text>
      <text x="186.648" y="79.795">A</text>
      <text x="201.613" y="78.771">U</text>
      <text x="213.359" y="89.346">G</text>
      <text x="229.137" y="88.434">A</text>
      <text x="239.586" y="76.577">G</text>
      <text x="238.508" y="60.810">A</text>
      <text x="226.541" y="50.486">A</text>
      <text x="210.786" y="51.731">U</text>
      <text x="200.589" y="63.806">A</text>
      <text x="185.624" y="64.830">U</text>
      <text x="170.659" y="65.854">U</text>
      <text x="155.694" y="66.877">C</text>
      <text x="140.729" y="67.901">U</text>
      <text x="134.344" y="54.007">U</text>
      <text x="123.409" y="43.318">U</text>
      <text x="109.374" y="37.251">U</text>
      <text x="110.056" y="22.267">C</text>
      <text x="110.739" y="7.282">A</text>
      <text x="111.422" y="-7.702">C</text>
      <text x="112.105" y="-22.687">C</text>
      <text x="115.170" y="-41.825">A</text>
    </g>
  </g>
</svg>
