<?xml version="1.0" encoding="UTF-8" standalone="yes"?>
<svg xmlns="http://www.w3.org/2000/svg" height="452" width="452">
<script type="text/ecmascript">
      <![CDATA[
        var shown = 1;
        function click() {
             var seq = document.getElementById("seq");
             if (shown==1) {
               seq.setAttribute("style", "visibility: hidden");
               shown = 0;
             } else {
               seq.setAttribute("style", "visibility: visible");
               shown = 1;
             }
         }
        ]]>
</script>
  <rect style="stroke: white; fill: white" height="452" x="0" y="0" width="452" onclick="click(evt)" />
  <g transform="scale(1.585150,1.585150) translate(42.962090,39.273857)">
    <polyline style="stroke: black; fill: none; stroke-width: 1.5" id="outline" points="
      109.808,-15.856
      109.094,-0.873
      108.381,14.110
      107.667,29.093
      106.953,44.076
      98.619,56.421
      105.691,70.573
      88.530,73.921
      75.761,84.512
      69.969,99.099
      54.969,99.099
      39.969,99.099
      30.958,86.467
      16.232,81.576
      1.454,86.306
      -7.694,98.840
      -7.694,114.357
      1.454,126.891
      16.232,131.622
      30.958,126.731
      39.969,114.099
      54.969,114.099
      69.969,114.099
      78.113,128.486
      92.500,136.629
      92.500,151.629
      92.500,166.629
      92.500,181.629
      92.500,196.629
      80.405,206.542
      77.563,221.919
      85.314,235.500
      100.000,240.873
      114.686,235.500
      122.437,221.919
      119.595,206.542
      107.500,196.629
      107.500,181.629
      107.500,166.629
      107.500,151.629
      107.500,136.629
      117.295,133.590
      125.871,127.343
      132.178,118.372
      135.357,107.505
      134.849,95.839
      149.578,93.000
      164.307,90.161
      179.036,87.323
      194.348,93.195
      206.917,82.661
      203.813,66.559
      188.230,61.451
      176.197,72.594
      161.468,75.432
      146.739,78.271
      132.010,81.110
      120.674,71.287
      129.059,57.871
      121.936,44.790
      122.650,29.807
      123.364,14.824
      124.077,-0.159
      124.791,-15.142
      127.896,-34.274
    " />
    <g style="stroke: black; stroke-width: 1" id="pairs">
      <line id="1,64" x1="109.808" y1="-15.856" x2="124.791" y2="-15.142" />
      <line id="2,63" x1="109.094" y1="-0.873" x2="124.077" y2="-0.159" />
      <line id="3,62" x1="108.381" y1="14.110" x2="123.364" y2="14.824" />
      <line id="4,61" x1="107.667" y1="29.093" x2="122.650" y2="29.807" />
      <line id="5,60" x1="106.953" y1="44.076" x2="121.936" y2="44.790" />
      <line id="7,58" x1="105.691" y1="70.573" x2="120.674" y2="71.287" />
      <line id="10,23" x1="69.969" y1="99.099" x2="69.969" y2="114.099" />
      <line id="11,22" x1="54.969" y1="99.099" x2="54.969" y2="114.099" />
      <line id="12,21" x1="39.969" y1="99.099" x2="39.969" y2="114.099" />
      <line id="25,41" x1="92.500" y1="136.629" x2="107.500" y2="136.629" />
      <line id="26,40" x1="92.500" y1="151.629" x2="107.500" y2="151.629" />
      <line id="27,39" x1="92.500" y1="166.629" x2="107.500" y2="166.629" />
      <line id="28,38" x1="92.500" y1="181.629" x2="107.500" y2="181.629" />
      <line id="29,37" x1="92.500" y1="196.629" x2="107.500" y2="196.629" />
      <line id="46,57" x1="134.849" y1="95.839" x2="132.010" y2="81.110" />
      <line id="47,56" x1="149.578" y1="93.000" x2="146.739" y2="78.271" />
      <line id="48,55" x1="164.307" y1="90.161" x2="161.468" y2="75.432" />
      <line id="49,54" x1="179.036" y1="87.323" x2="176.197" y2="72.594" />
    </g>
    <g style="font-family: SansSerif" transform="translate(-4.6, 4)" id="seq">
      <text x="109.808" y="-15.856">G</text>
      <text x="109.094" y="-0.873">G</text>
      <text x="108.381" y="14.110">C</text>
      <text x="107.667" y="29.093">C</text>
      <text x="106.953" y="44.076">U</text>
      <text x="98.619" y="56.421">U</text>
      <text x="105.691" y="70.573">G</text>
      <text x="88.530" y="73.921">U</text>
      <text x="75.761" y="84.512">A</text>
      <text x="69.969" y="99.099">G</text>
      <text x="54.969" y="99.099">U</text>
      <text x="39.969" y="99.099">U</text>
      <text x="30.958" y="86.467">G</text>
      <text x="16.232" y="81.576">A</text>
      <text x="1.454" y="86.306">A</text>
      <text x="-7.694" y="98.840">A</text>
      <text x="-7.694" y="114.357">U</text>
      <text x="1.454" y="126.891">A</text>
      <text x="16.232" y="131.622">A</text>
      <text x="30.958" y="126.731">A</text>
      <text x="39.969" y="114.099">A</text>
      <text x="54.969" y="114.099">A</text>
      <text x="69.969" y="114.099">U</text>
      <text x="78.113" y="128.486">A</text>
      <text x="92.500" y="136.629">U</text>
      <text x="92.500" y="151.629">U</text>
      <text x="92.500" y="166.629">A</text>
      <text x="92.500" y="181.629">A</text>
      <text x="92.500" y="196.629">A</text>
      <text x="80.405" y="206.542">U</text>
      <text x="77.563" y="221.919">U</text>
      <text x="85.314" y="235.500">G</text>
      <text x="100.000" y="240.873">C</text>
      <text x="114.686" y="235.500">A</text>
      <text x="122.437" y="221.919">A</text>
      <text x="119.595" y="206.542">A</text>
      <text x="107.500" y="196.629">U</text>
      <text x="107.500" y="181.629">U</text>
      <text x="107.500" y="166.629">U</text>
      <text x="107.500" y="151.629">A</text>
      <text x="107.500" y="136.629">A</text>
      <text x="117.295" y="133.590">A</text>
      <text x="125.871" y="127.343">U</text>
      <text x="132.178" y="118.372">G</text>
      <text x="135.357" y="107.505">U</text>
      <text x="134.849" y="95.839">G</text>
      <text x="149.578" y="93.000">C</text>
      <text x="164.307" y="90.161">U</text>
      <text x="179.036" y="87.323">U</text>
      <text x="194.348" y="93.195">G</text>
      <text x="206.917" y="82.661">A</text>
      <text x="203.813" y="66.559">A</text>
      <text x="188.230" y="61.451">A</text>
      <text x="176.197" y="72.594">A</text>
      <text x="161.468" y="75.432">A</text>
      <text x="146.739" y="78.271">G</text>
      <text x="132.010" y="81.110">C</text>
      <text x="120.674" y="71.287">U</text>
      <text x="129.059" y="57.871">U</text>
      <text x="121.936" y="44.790">A</text>
      <text x="122.650" y="29.807">G</text>
      <text x="123.364" y="14.824">G</text>
      <text x="124.077" y="-0.159">C</text>
      <text x="124.791" y="-15.142">U</text>
      <text x="127.896" y="-34.274">U</text>
    </g>
  </g>
</svg>
