<?xml version="1.0" encoding="UTF-8" standalone="yes"?>
<svg xmlns="http://www.w3.org/2000/svg" height="452" width="452">
<script type="text/ecmascript">
      <![CDATA[
        var shown = 1;
        function click() {
             var seq = document.getElementById("seq");
             if (shown==1) {
               seq.setAttribute("style", "visibility: hidden");
               shown = 0;
             } else {
               seq.setAttribute("style", "visibility: visible");
               shown = 1;
             }
         }
        ]]>
</script>
  <rect style="stroke: white; fill: white" height="452" x="0" y="0" width="452" onclick="click(evt)" />
  <g transform="scale(1.654690,1.654690) translate(42.074020,21.467010)">
    <polyline style="stroke: black; fill: none; stroke-width: 1.5" id="outline" points="
      111.339,1.964
      110.636,16.947
      109.932,31.931
      109.229,46.914
      108.526,61.898
      107.823,76.881
      107.120,91.865
      87.749,94.997
      73.202,106.819
      66.809,123.505
      51.813,123.857
      36.817,124.208
      21.822,124.560
      11.628,112.701
      -3.811,110.220
      -17.207,118.288
      -22.234,133.095
      -16.518,147.651
      -2.759,155.082
      12.547,151.880
      22.173,139.556
      37.169,139.204
      52.165,138.853
      67.161,138.501
      72.622,150.161
      82.041,158.940
      94.056,163.568
      94.759,178.552
      95.462,193.535
      82.830,202.391
      77.012,216.679
      79.865,231.841
      90.478,243.037
      105.465,246.696
      120.044,241.650
      129.562,229.509
      130.983,214.147
      123.852,200.466
      110.446,192.832
      109.743,177.849
      109.040,162.865
      117.999,159.924
      126.007,154.515
      132.383,146.943
      136.544,137.705
      138.059,127.449
      136.686,116.937
      151.353,113.795
      166.020,110.653
      181.135,115.329
      191.959,105.097
      211.249,103.206
      207.189,84.255
      188.818,90.430
      174.752,85.530
      162.879,95.986
      148.211,99.128
      133.544,102.269
      122.104,92.568
      122.807,77.584
      123.510,62.601
      124.213,47.617
      124.916,32.634
      125.619,17.650
      126.322,2.667
      129.413,-16.467
    " />
    <g style="stroke: black; stroke-width: 1" id="pairs">
      <line id="1,65" x1="111.339" y1=" 1.964" x2="126.322" y2=" 2.667" />
      <line id="2,64" x1="110.636" y1="16.947" x2="125.619" y2="17.650" />
      <line id="3,63" x1="109.932" y1="31.931" x2="124.916" y2="32.634" />
      <line id="4,62" x1="109.229" y1="46.914" x2="124.213" y2="47.617" />
      <line id="5,61" x1="108.526" y1="61.898" x2="123.510" y2="62.601" />
      <line id="6,60" x1="107.823" y1="76.881" x2="122.807" y2="77.584" />
      <line id="7,59" x1="107.120" y1="91.865" x2="122.104" y2="92.568" />
      <line id="10,24" x1="66.809" y1="123.505" x2="67.161" y2="138.501" />
      <line id="11,23" x1="51.813" y1="123.857" x2="52.165" y2="138.853" />
      <line id="12,22" x1="36.817" y1="124.208" x2="37.169" y2="139.204" />
      <line id="13,21" x1="21.822" y1="124.560" x2="22.173" y2="139.556" />
      <line id="27,41" x1="94.056" y1="163.568" x2="109.040" y2="162.865" />
      <line id="28,40" x1="94.759" y1="178.552" x2="109.743" y2="177.849" />
      <line id="29,39" x1="95.462" y1="193.535" x2="110.446" y2="192.832" />
      <line id="47,58" x1="136.686" y1="116.937" x2="133.544" y2="102.269" />
      <line id="48,57" x1="151.353" y1="113.795" x2="148.211" y2="99.128" />
      <line id="49,56" x1="166.020" y1="110.653" x2="162.879" y2="95.986" />
      <line id="51,54" x1="191.959" y1="105.097" x2="188.818" y2="90.430" />
    </g>
    <g style="font-family: SansSerif" transform="translate(-4.6, 4)" id="seq">
      <text x="111.339" y="1.964">G</text>
      <text x="110.636" y="16.947">A</text>
      <text x="109.932" y="31.931">A</text>
      <text x="109.229" y="46.914">A</text>
      <text x="108.526" y="61.898">A</text>
      <text x="107.823" y="76.881">G</text>
      <text x="107.120" y="91.865">U</text>
      <text x="87.749" y="94.997">U</text>
      <text x="73.202" y="106.819">A</text>
      <text x="66.809" y="123.505">G</text>
      <text x="51.813" y="123.857">U</text>
      <text x="36.817" y="124.208">U</text>
      <text x="21.822" y="124.560">U</text>
      <text x="11.628" y="112.701">A</text>
      <text x="-3.811" y="110.220">A</text>
      <text x="-17.207" y="118.288">A</text>
      <text x="-22.234" y="133.095">U</text>
      <text x="-16.518" y="147.651">G</text>
      <text x="-2.759" y="155.082">A</text>
      <text x="12.547" y="151.880">A</text>
      <text x="22.173" y="139.556">A</text>
      <text x="37.169" y="139.204">A</text>
      <text x="52.165" y="138.853">A</text>
      <text x="67.161" y="138.501">U</text>
      <text x="72.622" y="150.161">U</text>
      <text x="82.041" y="158.940">U</text>
      <text x="94.056" y="163.568">U</text>
      <text x="94.759" y="178.552">A</text>
      <text x="95.462" y="193.535">G</text>
      <text x="82.830" y="202.391">U</text>
      <text x="77.012" y="216.679">U</text>
      <text x="79.865" y="231.841">U</text>
      <text x="90.478" y="243.037">G</text>
      <text x="105.465" y="246.696">U</text>
      <text x="120.044" y="241.650">C</text>
      <text x="129.562" y="229.509">A</text>
      <text x="130.983" y="214.147">U</text>
      <text x="123.852" y="200.466">U</text>
      <text x="110.446" y="192.832">C</text>
      <text x="109.743" y="177.849">U</text>
      <text x="109.040" y="162.865">A</text>
      <text x="117.999" y="159.924">U</text>
      <text x="126.007" y="154.515">A</text>
      <text x="132.383" y="146.943">G</text>
      <text x="136.544" y="137.705">A</text>
      <text x="138.059" y="127.449">U</text>
      <text x="136.686" y="116.937">A</text>
      <text x="151.353" y="113.795">C</text>
      <text x="166.020" y="110.653">U</text>
      <text x="181.135" y="115.329">G</text>
      <text x="191.959" y="105.097">A</text>
      <text x="211.249" y="103.206">G</text>
      <text x="207.189" y="84.255">U</text>
      <text x="188.818" y="90.430">U</text>
      <text x="174.752" y="85.530">A</text>
      <text x="162.879" y="95.986">A</text>
      <text x="148.211" y="99.128">G</text>
      <text x="133.544" y="102.269">U</text>
      <text x="122.104" y="92.568">A</text>
      <text x="122.807" y="77.584">C</text>
      <text x="123.510" y="62.601">U</text>
      <text x="124.213" y="47.617">U</text>
      <text x="124.916" y="32.634">U</text>
      <text x="125.619" y="17.650">U</text>
      <text x="126.322" y="2.667">U</text>
      <text x="129.413" y="-16.467">U</text>
    </g>
  </g>
</svg>
