<?xml version="1.0" encoding="UTF-8" standalone="yes"?>
<svg xmlns="http://www.w3.org/2000/svg" height="452" width="452">
<script type="text/ecmascript">
      <![CDATA[
        var shown = 1;
        function click() {
             var seq = document.getElementById("seq");
             if (shown==1) {
               seq.setAttribute("style", "visibility: hidden");
               shown = 0;
             } else {
               seq.setAttribute("style", "visibility: visible");
               shown = 1;
             }
         }
        ]]>
</script>
  <rect style="stroke: white; fill: white" height="452" x="0" y="0" width="452" onclick="click(evt)" />
  <g transform="scale(1.567068,1.567068) translate(50.347542,39.043907)">
    <polyline style="stroke: black; fill: none; stroke-width: 1.5" id="outline" points="
      109.373,-15.566
      108.710,-0.580
      108.046,14.405
      107.383,29.390
      106.719,44.376
      106.056,59.361
      105.392,74.346
      88.150,77.889
      75.456,88.732
      69.909,103.513
      54.913,103.845
      39.917,104.177
      24.920,104.508
      16.380,91.661
      2.240,85.490
      -12.987,87.967
      -24.443,98.300
      -28.472,113.192
      -23.788,127.891
      -11.886,137.707
      3.436,139.507
      17.289,132.718
      25.252,119.505
      40.249,119.173
      55.245,118.841
      70.241,118.509
      78.917,132.880
      93.831,140.583
      94.495,155.569
      95.158,170.554
      95.822,185.539
      96.485,200.525
      84.841,210.962
      82.681,226.450
      91.026,239.675
      105.935,244.393
      120.369,238.376
      127.512,224.465
      123.992,209.229
      111.471,199.861
      110.807,184.876
      110.144,169.890
      109.480,154.905
      108.817,139.920
      118.225,136.611
      126.387,130.292
      132.338,121.436
      135.292,110.821
      134.740,99.468
      149.444,96.501
      164.147,93.534
      178.851,90.567
      191.876,99.518
      207.400,96.556
      216.213,83.438
      213.087,67.945
      199.876,59.271
      184.418,62.561
      175.884,75.863
      161.180,78.830
      146.477,81.797
      131.773,84.764
      120.378,75.010
      121.041,60.024
      121.705,45.039
      122.368,30.054
      123.032,15.068
      123.695,0.083
      124.359,-14.902
      127.399,-34.044
    " />
    <g style="stroke: black; stroke-width: 1" id="pairs">
      <line id="1,69" x1="109.373" y1="-15.566" x2="124.359" y2="-14.902" />
      <line id="2,68" x1="108.710" y1="-0.580" x2="123.695" y2=" 0.083" />
      <line id="3,67" x1="108.046" y1="14.405" x2="123.032" y2="15.068" />
      <line id="4,66" x1="107.383" y1="29.390" x2="122.368" y2="30.054" />
      <line id="5,65" x1="106.719" y1="44.376" x2="121.705" y2="45.039" />
      <line id="6,64" x1="106.056" y1="59.361" x2="121.041" y2="60.024" />
      <line id="7,63" x1="105.392" y1="74.346" x2="120.378" y2="75.010" />
      <line id="10,26" x1="69.909" y1="103.513" x2="70.241" y2="118.509" />
      <line id="11,25" x1="54.913" y1="103.845" x2="55.245" y2="118.841" />
      <line id="12,24" x1="39.917" y1="104.177" x2="40.249" y2="119.173" />
      <line id="13,23" x1="24.920" y1="104.508" x2="25.252" y2="119.505" />
      <line id="28,44" x1="93.831" y1="140.583" x2="108.817" y2="139.920" />
      <line id="29,43" x1="94.495" y1="155.569" x2="109.480" y2="154.905" />
      <line id="30,42" x1="95.158" y1="170.554" x2="110.144" y2="169.890" />
      <line id="31,41" x1="95.822" y1="185.539" x2="110.807" y2="184.876" />
      <line id="32,40" x1="96.485" y1="200.525" x2="111.471" y2="199.861" />
      <line id="49,62" x1="134.740" y1="99.468" x2="131.773" y2="84.764" />
      <line id="50,61" x1="149.444" y1="96.501" x2="146.477" y2="81.797" />
      <line id="51,60" x1="164.147" y1="93.534" x2="161.180" y2="78.830" />
      <line id="52,59" x1="178.851" y1="90.567" x2="175.884" y2="75.863" />
    </g>
    <g style="font-family: SansSerif" transform="translate(-4.6, 4)" id="seq">
      <text x="109.373" y="-15.566">G</text>
      <text x="108.710" y="-0.580">C</text>
      <text x="108.046" y="14.405">A</text>
      <text x="107.383" y="29.390">U</text>
      <text x="106.719" y="44.376">U</text>
      <text x="106.056" y="59.361">U</text>
      <text x="105.392" y="74.346">A</text>
      <text x="88.150" y="77.889">U</text>
      <text x="75.456" y="88.732">A</text>
      <text x="69.909" y="103.513">G</text>
      <text x="54.913" y="103.845">U</text>
      <text x="39.917" y="104.177">A</text>
      <text x="24.920" y="104.508">U</text>
      <text x="16.380" y="91.661">A</text>
      <text x="2.240" y="85.490">A</text>
      <text x="-12.987" y="87.967">A</text>
      <text x="-24.443" y="98.300">A</text>
      <text x="-28.472" y="113.192">G</text>
      <text x="-23.788" y="127.891">U</text>
      <text x="-11.886" y="137.707">U</text>
      <text x="3.436" y="139.507">U</text>
      <text x="17.289" y="132.718">A</text>
      <text x="25.252" y="119.505">A</text>
      <text x="40.249" y="119.173">U</text>
      <text x="55.245" y="118.841">A</text>
      <text x="70.241" y="118.509">C</text>
      <text x="78.917" y="132.880">G</text>
      <text x="93.831" y="140.583">U</text>
      <text x="94.495" y="155.569">U</text>
      <text x="95.158" y="170.554">A</text>
      <text x="95.822" y="185.539">A</text>
      <text x="96.485" y="200.525">G</text>
      <text x="84.841" y="210.962">G</text>
      <text x="82.681" y="226.450">U</text>
      <text x="91.026" y="239.675">U</text>
      <text x="105.935" y="244.393">U</text>
      <text x="120.369" y="238.376">C</text>
      <text x="127.512" y="224.465">A</text>
      <text x="123.992" y="209.229">U</text>
      <text x="111.471" y="199.861">U</text>
      <text x="110.807" y="184.876">U</text>
      <text x="110.144" y="169.890">U</text>
      <text x="109.480" y="154.905">A</text>
      <text x="108.817" y="139.920">A</text>
      <text x="118.225" y="136.611">A</text>
      <text x="126.387" y="130.292">G</text>
      <text x="132.338" y="121.436">A</text>
      <text x="135.292" y="110.821">U</text>
      <text x="134.740" y="99.468">G</text>
      <text x="149.444" y="96.501">C</text>
      <text x="164.147" y="93.534">A</text>
      <text x="178.851" y="90.567">U</text>
      <text x="191.876" y="99.518">G</text>
      <text x="207.400" y="96.556">G</text>
      <text x="216.213" y="83.438">U</text>
      <text x="213.087" y="67.945">G</text>
      <text x="199.876" y="59.271">U</text>
      <text x="184.418" y="62.561">A</text>
      <text x="175.884" y="75.863">A</text>
      <text x="161.180" y="78.830">U</text>
      <text x="146.477" y="81.797">G</text>
      <text x="131.773" y="84.764">C</text>
      <text x="120.378" y="75.010">U</text>
      <text x="121.041" y="60.024">G</text>
      <text x="121.705" y="45.039">A</text>
      <text x="122.368" y="30.054">G</text>
      <text x="123.032" y="15.068">U</text>
      <text x="123.695" y="0.083">G</text>
      <text x="124.359" y="-14.902">U</text>
      <text x="127.399" y="-34.044">U</text>
    </g>
  </g>
</svg>
