<?xml version="1.0" encoding="UTF-8" standalone="yes"?>
<svg xmlns="http://www.w3.org/2000/svg" height="452" width="452">
<script type="text/ecmascript">
      <![CDATA[
        var shown = 1;
        function click() {
             var seq = document.getElementById("seq");
             if (shown==1) {
               seq.setAttribute("style", "visibility: hidden");
               shown = 0;
             } else {
               seq.setAttribute("style", "visibility: visible");
               shown = 1;
             }
         }
        ]]>
</script>
  <rect style="stroke: white; fill: white" height="452" x="0" y="0" width="452" onclick="click(evt)" />
  <g transform="scale(1.642964,1.642964) translate(44.531250,26.363342)">
    <polyline style="stroke: black; fill: none; stroke-width: 1.5" id="outline" points="
      110.298,-2.933
      109.595,12.051
      108.892,27.034
      108.189,42.018
      99.864,54.368
      106.946,68.516
      106.243,83.500
      86.487,87.250
      72.022,99.884
      66.225,117.247
      51.262,118.301
      36.299,119.355
      21.336,120.409
      11.459,108.441
      -3.575,104.597
      -17.984,110.355
      -26.228,123.501
      -25.138,138.980
      -15.132,150.839
      -0.057,154.520
      14.289,148.606
      22.390,135.372
      37.353,134.318
      52.316,133.264
      67.279,132.210
      73.676,144.163
      84.219,152.687
      97.247,156.439
      99.350,171.291
      101.453,186.143
      103.556,200.994
      92.971,212.505
      92.312,228.128
      101.892,240.489
      117.185,243.749
      130.973,236.371
      136.744,221.837
      131.773,207.010
      118.408,198.891
      116.305,184.040
      114.202,169.188
      112.099,154.336
      120.503,150.794
      127.862,145.031
      133.588,137.358
      137.186,128.240
      138.294,118.272
      136.716,108.137
      151.220,104.312
      165.724,100.486
      181.041,104.448
      191.374,93.720
      212.278,80.450
      187.549,79.216
      173.269,74.981
      161.899,85.982
      147.395,89.808
      132.891,93.633
      121.226,84.203
      121.929,69.219
      130.305,55.797
      123.173,42.721
      123.876,27.737
      124.579,12.754
      125.282,-2.230
      128.373,-21.363
    " />
    <g style="stroke: black; stroke-width: 1" id="pairs">
      <line id="1,65" x1="110.298" y1="-2.933" x2="125.282" y2="-2.230" />
      <line id="2,64" x1="109.595" y1="12.051" x2="124.579" y2="12.754" />
      <line id="3,63" x1="108.892" y1="27.034" x2="123.876" y2="27.737" />
      <line id="4,62" x1="108.189" y1="42.018" x2="123.173" y2="42.721" />
      <line id="6,60" x1="106.946" y1="68.516" x2="121.929" y2="69.219" />
      <line id="7,59" x1="106.243" y1="83.500" x2="121.226" y2="84.203" />
      <line id="10,25" x1="66.225" y1="117.247" x2="67.279" y2="132.210" />
      <line id="11,24" x1="51.262" y1="118.301" x2="52.316" y2="133.264" />
      <line id="12,23" x1="36.299" y1="119.355" x2="37.353" y2="134.318" />
      <line id="13,22" x1="21.336" y1="120.409" x2="22.390" y2="135.372" />
      <line id="28,42" x1="97.247" y1="156.439" x2="112.099" y2="154.336" />
      <line id="29,41" x1="99.350" y1="171.291" x2="114.202" y2="169.188" />
      <line id="30,40" x1="101.453" y1="186.143" x2="116.305" y2="184.040" />
      <line id="31,39" x1="103.556" y1="200.994" x2="118.408" y2="198.891" />
      <line id="48,58" x1="136.716" y1="108.137" x2="132.891" y2="93.633" />
      <line id="49,57" x1="151.220" y1="104.312" x2="147.395" y2="89.808" />
      <line id="50,56" x1="165.724" y1="100.486" x2="161.899" y2="85.982" />
      <line id="52,54" x1="191.374" y1="93.720" x2="187.549" y2="79.216" />
    </g>
    <g style="font-family: SansSerif" transform="translate(-4.6, 4)" id="seq">
      <text x="110.298" y="-2.933">A</text>
      <text x="109.595" y="12.051">C</text>
      <text x="108.892" y="27.034">C</text>
      <text x="108.189" y="42.018">U</text>
      <text x="99.864" y="54.368">U</text>
      <text x="106.946" y="68.516">U</text>
      <text x="106.243" y="83.500">G</text>
      <text x="86.487" y="87.250">U</text>
      <text x="72.022" y="99.884">A</text>
      <text x="66.225" y="117.247">G</text>
      <text x="51.262" y="118.301">U</text>
      <text x="36.299" y="119.355">C</text>
      <text x="21.336" y="120.409">U</text>
      <text x="11.459" y="108.441">A</text>
      <text x="-3.575" y="104.597">A</text>
      <text x="-17.984" y="110.355">A</text>
      <text x="-26.228" y="123.501">U</text>
      <text x="-25.138" y="138.980">A</text>
      <text x="-15.132" y="150.839">A</text>
      <text x="-0.057" y="154.520">U</text>
      <text x="14.289" y="148.606">A</text>
      <text x="22.390" y="135.372">A</text>
      <text x="37.353" y="134.318">G</text>
      <text x="52.316" y="133.264">A</text>
      <text x="67.279" y="132.210">U</text>
      <text x="73.676" y="144.163">A</text>
      <text x="84.219" y="152.687">A</text>
      <text x="97.247" y="156.439">A</text>
      <text x="99.350" y="171.291">G</text>
      <text x="101.453" y="186.143">C</text>
      <text x="103.556" y="200.994">G</text>
      <text x="92.971" y="212.505">U</text>
      <text x="92.312" y="228.128">U</text>
      <text x="101.892" y="240.489">G</text>
      <text x="117.185" y="243.749">A</text>
      <text x="130.973" y="236.371">A</text>
      <text x="136.744" y="221.837">G</text>
      <text x="131.773" y="207.010">G</text>
      <text x="118.408" y="198.891">U</text>
      <text x="116.305" y="184.040">G</text>
      <text x="114.202" y="169.188">C</text>
      <text x="112.099" y="154.336">U</text>
      <text x="120.503" y="150.794">G</text>
      <text x="127.862" y="145.031">U</text>
      <text x="133.588" y="137.358">G</text>
      <text x="137.186" y="128.240">A</text>
      <text x="138.294" y="118.272">U</text>
      <text x="136.716" y="108.137">A</text>
      <text x="151.220" y="104.312">G</text>
      <text x="165.724" y="100.486">A</text>
      <text x="181.041" y="104.448">U</text>
      <text x="191.374" y="93.720">U</text>
      <text x="212.278" y="80.450">A</text>
      <text x="187.549" y="79.216">G</text>
      <text x="173.269" y="74.981">U</text>
      <text x="161.899" y="85.982">U</text>
      <text x="147.395" y="89.808">C</text>
      <text x="132.891" y="93.633">U</text>
      <text x="121.226" y="84.203">C</text>
      <text x="121.929" y="69.219">G</text>
      <text x="130.305" y="55.797">U</text>
      <text x="123.173" y="42.721">A</text>
      <text x="123.876" y="27.737">G</text>
      <text x="124.579" y="12.754">G</text>
      <text x="125.282" y="-2.230">U</text>
      <text x="128.373" y="-21.363">G</text>
    </g>
  </g>
</svg>
