<?xml version="1.0" encoding="UTF-8" standalone="yes"?>
<svg xmlns="http://www.w3.org/2000/svg" height="452" width="452">
<script type="text/ecmascript">
      <![CDATA[
        var shown = 1;
        function click() {
             var seq = document.getElementById("seq");
             if (shown==1) {
               seq.setAttribute("style", "visibility: hidden");
               shown = 0;
             } else {
               seq.setAttribute("style", "visibility: visible");
               shown = 1;
             }
         }
        ]]>
</script>
  <rect style="stroke: white; fill: white" height="452" x="0" y="0" width="452" onclick="click(evt)" />
  <g transform="scale(1.543201,1.543201) translate(34.935310,41.676086)">
    <polyline style="stroke: black; fill: none; stroke-width: 1.5" id="outline" points="
      112.974,-18.258
      112.260,-3.275
      111.546,11.708
      110.832,26.691
      110.119,41.674
      109.405,56.657
      108.691,71.640
      94.153,72.362
      81.372,78.282
      72.067,88.219
      67.340,100.481
      52.357,99.768
      37.374,99.054
      25.562,88.198
      9.732,90.806
      2.028,104.879
      8.360,119.619
      23.870,123.721
      36.660,114.037
      51.643,114.751
      66.626,115.464
      70.833,126.812
      78.758,135.959
      89.392,141.738
      87.966,156.670
      86.540,171.602
      85.114,186.534
      83.689,201.466
      70.707,210.184
      66.415,225.221
      72.841,239.477
      86.949,246.222
      102.079,242.269
      111.086,229.486
      109.718,213.909
      98.621,202.892
      100.046,187.960
      101.472,173.028
      102.898,158.095
      104.324,143.163
      116.132,140.486
      126.566,133.681
      134.194,123.394
      137.871,110.762
      136.908,97.291
      151.755,95.156
      166.603,93.021
      181.450,90.886
      196.297,88.752
      212.836,92.482
      220.999,77.623
      208.980,65.665
      194.163,73.904
      179.315,76.039
      164.468,78.174
      149.621,80.309
      134.773,82.443
      123.674,72.353
      124.388,57.370
      125.102,42.387
      125.815,27.404
      126.529,12.421
      127.243,-2.562
      127.957,-17.545
      131.061,-36.676
    " />
    <g style="stroke: black; stroke-width: 1" id="pairs">
      <line id="1,64" x1="112.974" y1="-18.258" x2="127.957" y2="-17.545" />
      <line id="2,63" x1="112.260" y1="-3.275" x2="127.243" y2="-2.562" />
      <line id="3,62" x1="111.546" y1="11.708" x2="126.529" y2="12.421" />
      <line id="4,61" x1="110.832" y1="26.691" x2="125.815" y2="27.404" />
      <line id="5,60" x1="110.119" y1="41.674" x2="125.102" y2="42.387" />
      <line id="6,59" x1="109.405" y1="56.657" x2="124.388" y2="57.370" />
      <line id="7,58" x1="108.691" y1="71.640" x2="123.674" y2="72.353" />
      <line id="11,21" x1="67.340" y1="100.481" x2="66.626" y2="115.464" />
      <line id="12,20" x1="52.357" y1="99.768" x2="51.643" y2="114.751" />
      <line id="13,19" x1="37.374" y1="99.054" x2="36.660" y2="114.037" />
      <line id="24,40" x1="89.392" y1="141.738" x2="104.324" y2="143.163" />
      <line id="25,39" x1="87.966" y1="156.670" x2="102.898" y2="158.095" />
      <line id="26,38" x1="86.540" y1="171.602" x2="101.472" y2="173.028" />
      <line id="27,37" x1="85.114" y1="186.534" x2="100.046" y2="187.960" />
      <line id="28,36" x1="83.689" y1="201.466" x2="98.621" y2="202.892" />
      <line id="45,57" x1="136.908" y1="97.291" x2="134.773" y2="82.443" />
      <line id="46,56" x1="151.755" y1="95.156" x2="149.621" y2="80.309" />
      <line id="47,55" x1="166.603" y1="93.021" x2="164.468" y2="78.174" />
      <line id="48,54" x1="181.450" y1="90.886" x2="179.315" y2="76.039" />
      <line id="49,53" x1="196.297" y1="88.752" x2="194.163" y2="73.904" />
    </g>
    <g style="font-family: SansSerif" transform="translate(-4.6, 4)" id="seq">
      <text x="112.974" y="-18.258">G</text>
      <text x="112.260" y="-3.275">U</text>
      <text x="111.546" y="11.708">C</text>
      <text x="110.832" y="26.691">A</text>
      <text x="110.119" y="41.674">A</text>
      <text x="109.405" y="56.657">A</text>
      <text x="108.691" y="71.640">G</text>
      <text x="94.153" y="72.362">U</text>
      <text x="81.372" y="78.282">A</text>
      <text x="72.067" y="88.219">U</text>
      <text x="67.340" y="100.481">U</text>
      <text x="52.357" y="99.768">U</text>
      <text x="37.374" y="99.054">U</text>
      <text x="25.562" y="88.198">A</text>
      <text x="9.732" y="90.806">U</text>
      <text x="2.028" y="104.879">A</text>
      <text x="8.360" y="119.619">A</text>
      <text x="23.870" y="123.721">A</text>
      <text x="36.660" y="114.037">A</text>
      <text x="51.643" y="114.751">A</text>
      <text x="66.626" y="115.464">A</text>
      <text x="70.833" y="126.812">U</text>
      <text x="78.758" y="135.959">A</text>
      <text x="89.392" y="141.738">U</text>
      <text x="87.966" y="156.670">C</text>
      <text x="86.540" y="171.602">A</text>
      <text x="85.114" y="186.534">U</text>
      <text x="83.689" y="201.466">A</text>
      <text x="70.707" y="210.184">U</text>
      <text x="66.415" y="225.221">U</text>
      <text x="72.841" y="239.477">G</text>
      <text x="86.949" y="246.222">U</text>
      <text x="102.079" y="242.269">G</text>
      <text x="111.086" y="229.486">G</text>
      <text x="109.718" y="213.909">U</text>
      <text x="98.621" y="202.892">U</text>
      <text x="100.046" y="187.960">G</text>
      <text x="101.472" y="173.028">U</text>
      <text x="102.898" y="158.095">G</text>
      <text x="104.324" y="143.163">A</text>
      <text x="116.132" y="140.486">A</text>
      <text x="126.566" y="133.681">G</text>
      <text x="134.194" y="123.394">A</text>
      <text x="137.871" y="110.762">A</text>
      <text x="136.908" y="97.291">A</text>
      <text x="151.755" y="95.156">U</text>
      <text x="166.603" y="93.021">A</text>
      <text x="181.450" y="90.886">A</text>
      <text x="196.297" y="88.752">A</text>
      <text x="212.836" y="92.482">G</text>
      <text x="220.999" y="77.623">U</text>
      <text x="208.980" y="65.665">A</text>
      <text x="194.163" y="73.904">U</text>
      <text x="179.315" y="76.039">U</text>
      <text x="164.468" y="78.174">U</text>
      <text x="149.621" y="80.309">G</text>
      <text x="134.773" y="82.443">U</text>
      <text x="123.674" y="72.353">C</text>
      <text x="124.388" y="57.370">U</text>
      <text x="125.102" y="42.387">U</text>
      <text x="125.815" y="27.404">U</text>
      <text x="126.529" y="12.421">G</text>
      <text x="127.243" y="-2.562">A</text>
      <text x="127.957" y="-17.545">C</text>
      <text x="131.061" y="-36.676">A</text>
    </g>
  </g>
</svg>
