<?xml version="1.0" encoding="UTF-8" standalone="yes"?>
<svg xmlns="http://www.w3.org/2000/svg" height="452" width="452">
<script type="text/ecmascript">
      <![CDATA[
        var shown = 1;
        function click() {
             var seq = document.getElementById("seq");
             if (shown==1) {
               seq.setAttribute("style", "visibility: hidden");
               shown = 0;
             } else {
               seq.setAttribute("style", "visibility: visible");
               shown = 1;
             }
         }
        ]]>
</script>
  <rect style="stroke: white; fill: white" height="452" x="0" y="0" width="452" onclick="click(evt)" />
  <g transform="scale(1.606694,1.606694) translate(25.988380,32.655151)">
    <polyline style="stroke: black; fill: none; stroke-width: 1.5" id="outline" points="
      112.468,-9.200
      111.785,5.784
      111.102,20.769
      110.420,35.753
      109.737,50.738
      109.054,65.722
      108.372,80.707
      91.985,82.399
      78.827,90.925
      71.391,103.818
      56.581,101.438
      41.771,99.058
      32.715,86.106
      17.138,83.433
      4.282,92.626
      1.775,108.230
      11.103,120.987
      26.732,123.330
      39.391,113.868
      54.201,116.248
      69.011,118.628
      73.428,132.171
      83.420,142.324
      78.720,156.569
      74.020,170.813
      69.320,185.058
      64.620,199.303
      50.028,204.926
      42.511,218.638
      45.616,233.964
      57.879,243.668
      73.508,243.167
      85.125,232.699
      87.244,217.206
      78.864,204.003
      83.565,189.758
      88.265,175.514
      92.965,161.269
      97.665,147.024
      107.653,147.047
      117.401,143.849
      125.873,137.593
      132.114,128.775
      135.354,118.184
      135.106,106.840
      150.071,105.816
      165.036,104.792
      180.001,103.769
      189.854,115.757
      204.879,119.631
      219.300,113.903
      227.572,100.774
      226.513,85.293
      216.531,73.413
      201.464,69.701
      187.106,75.586
      178.978,88.804
      164.013,89.827
      149.048,90.851
      134.083,91.875
      123.356,81.389
      124.039,66.405
      124.721,51.420
      125.404,36.436
      126.087,21.452
      126.770,6.467
      127.452,-8.517
      130.517,-27.655
    " />
    <g style="stroke: black; stroke-width: 1" id="pairs">
      <line id="1,67" x1="112.468" y1="-9.200" x2="127.452" y2="-8.517" />
      <line id="2,66" x1="111.785" y1=" 5.784" x2="126.770" y2=" 6.467" />
      <line id="3,65" x1="111.102" y1="20.769" x2="126.087" y2="21.452" />
      <line id="4,64" x1="110.420" y1="35.753" x2="125.404" y2="36.436" />
      <line id="5,63" x1="109.737" y1="50.738" x2="124.721" y2="51.420" />
      <line id="6,62" x1="109.054" y1="65.722" x2="124.039" y2="66.405" />
      <line id="7,61" x1="108.372" y1="80.707" x2="123.356" y2="81.389" />
      <line id="10,21" x1="71.391" y1="103.818" x2="69.011" y2="118.628" />
      <line id="11,20" x1="56.581" y1="101.438" x2="54.201" y2="116.248" />
      <line id="12,19" x1="41.771" y1="99.058" x2="39.391" y2="113.868" />
      <line id="23,39" x1="83.420" y1="142.324" x2="97.665" y2="147.024" />
      <line id="24,38" x1="78.720" y1="156.569" x2="92.965" y2="161.269" />
      <line id="25,37" x1="74.020" y1="170.813" x2="88.265" y2="175.514" />
      <line id="26,36" x1="69.320" y1="185.058" x2="83.565" y2="189.758" />
      <line id="27,35" x1="64.620" y1="199.303" x2="78.864" y2="204.003" />
      <line id="45,60" x1="135.106" y1="106.840" x2="134.083" y2="91.875" />
      <line id="46,59" x1="150.071" y1="105.816" x2="149.048" y2="90.851" />
      <line id="47,58" x1="165.036" y1="104.792" x2="164.013" y2="89.827" />
      <line id="48,57" x1="180.001" y1="103.769" x2="178.978" y2="88.804" />
    </g>
    <g style="font-family: SansSerif" transform="translate(-4.6, 4)" id="seq">
      <text x="112.468" y="-9.200">G</text>
      <text x="111.785" y="5.784">G</text>
      <text x="111.102" y="20.769">U</text>
      <text x="110.420" y="35.753">A</text>
      <text x="109.737" y="50.738">U</text>
      <text x="109.054" y="65.722">U</text>
      <text x="108.372" y="80.707">G</text>
      <text x="91.985" y="82.399">C</text>
      <text x="78.827" y="90.925">G</text>
      <text x="71.391" y="103.818">C</text>
      <text x="56.581" y="101.438">C</text>
      <text x="41.771" y="99.058">G</text>
      <text x="32.715" y="86.106">G</text>
      <text x="17.138" y="83.433">A</text>
      <text x="4.282" y="92.626">U</text>
      <text x="1.775" y="108.230">G</text>
      <text x="11.103" y="120.987">A</text>
      <text x="26.732" y="123.330">A</text>
      <text x="39.391" y="113.868">C</text>
      <text x="54.201" y="116.248">G</text>
      <text x="69.011" y="118.628">G</text>
      <text x="73.428" y="132.171">G</text>
      <text x="83.420" y="142.324">C</text>
      <text x="78.720" y="156.569">U</text>
      <text x="74.020" y="170.813">A</text>
      <text x="69.320" y="185.058">U</text>
      <text x="64.620" y="199.303">G</text>
      <text x="50.028" y="204.926">U</text>
      <text x="42.511" y="218.638">U</text>
      <text x="45.616" y="233.964">G</text>
      <text x="57.879" y="243.668">A</text>
      <text x="73.508" y="243.167">U</text>
      <text x="85.125" y="232.699">G</text>
      <text x="87.244" y="217.206">U</text>
      <text x="78.864" y="204.003">U</text>
      <text x="83.565" y="189.758">G</text>
      <text x="88.265" y="175.514">U</text>
      <text x="92.965" y="161.269">A</text>
      <text x="97.665" y="147.024">G</text>
      <text x="107.653" y="147.047">A</text>
      <text x="117.401" y="143.849">A</text>
      <text x="125.873" y="137.593">U</text>
      <text x="132.114" y="128.775">A</text>
      <text x="135.354" y="118.184">U</text>
      <text x="135.106" y="106.840">G</text>
      <text x="150.071" y="105.816">G</text>
      <text x="165.036" y="104.792">A</text>
      <text x="180.001" y="103.769">A</text>
      <text x="189.854" y="115.757">U</text>
      <text x="204.879" y="119.631">G</text>
      <text x="219.300" y="113.903">A</text>
      <text x="227.572" y="100.774">A</text>
      <text x="226.513" y="85.293">U</text>
      <text x="216.531" y="73.413">U</text>
      <text x="201.464" y="69.701">U</text>
      <text x="187.106" y="75.586">G</text>
      <text x="178.978" y="88.804">U</text>
      <text x="164.013" y="89.827">U</text>
      <text x="149.048" y="90.851">C</text>
      <text x="134.083" y="91.875">U</text>
      <text x="123.356" y="81.389">C</text>
      <text x="124.039" y="66.405">A</text>
      <text x="124.721" y="51.420">A</text>
      <text x="125.404" y="36.436">U</text>
      <text x="126.087" y="21.452">A</text>
      <text x="126.770" y="6.467">C</text>
      <text x="127.452" y="-8.517">U</text>
      <text x="130.517" y="-27.655">A</text>
    </g>
  </g>
</svg>
