<?xml version="1.0" encoding="UTF-8" standalone="yes"?>
<svg xmlns="http://www.w3.org/2000/svg" height="452" width="452">
<script type="text/ecmascript">
      <![CDATA[
        var shown = 1;
        function click() {
             var seq = document.getElementById("seq");
             if (shown==1) {
               seq.setAttribute("style", "visibility: hidden");
               shown = 0;
             } else {
               seq.setAttribute("style", "visibility: visible");
               shown = 1;
             }
         }
        ]]>
</script>
  <rect style="stroke: white; fill: white" height="452" x="0" y="0" width="452" onclick="click(evt)" />
  <g transform="scale(1.592646,1.592646) translate(34.605370,34.959869)">
    <polyline style="stroke: black; fill: none; stroke-width: 1.5" id="outline" points="
      110.753,-11.517
      110.060,3.467
      109.367,18.451
      108.674,33.435
      107.982,48.419
      107.289,63.403
      106.596,78.387
      89.754,81.155
      76.912,91.031
      70.632,105.019
      55.648,104.326
      40.664,103.634
      32.246,90.599
      17.761,85.033
      2.780,89.076
      -6.937,101.174
      -7.653,116.674
      0.906,129.617
      15.450,135.026
      30.386,130.820
      39.971,118.618
      54.955,119.310
      69.939,120.003
      76.858,134.023
      89.787,142.812
      80.810,155.839
      87.340,169.226
      85.956,184.162
      84.572,199.098
      71.614,207.852
      67.365,222.901
      73.830,237.140
      87.957,243.845
      103.076,239.850
      112.048,227.042
      110.636,211.468
      99.508,200.482
      100.892,185.546
      102.276,170.610
      111.154,158.651
      104.723,144.196
      115.034,141.864
      124.273,136.016
      131.245,127.125
      134.952,116.067
      134.738,104.041
      149.594,101.969
      164.450,99.897
      179.306,97.824
      194.162,95.752
      209.149,102.409
      222.247,92.541
      219.982,76.299
      204.683,70.392
      192.090,80.896
      177.234,82.968
      162.378,85.041
      147.521,87.113
      132.665,89.185
      121.580,79.080
      122.273,64.096
      122.966,49.112
      123.658,34.128
      124.351,19.144
      125.044,4.160
      125.737,-10.824
      128.815,-29.960
    " />
    <g style="stroke: black; stroke-width: 1" id="pairs">
      <line id="1,66" x1="110.753" y1="-11.517" x2="125.737" y2="-10.824" />
      <line id="2,65" x1="110.060" y1=" 3.467" x2="125.044" y2=" 4.160" />
      <line id="3,64" x1="109.367" y1="18.451" x2="124.351" y2="19.144" />
      <line id="4,63" x1="108.674" y1="33.435" x2="123.658" y2="34.128" />
      <line id="5,62" x1="107.982" y1="48.419" x2="122.966" y2="49.112" />
      <line id="6,61" x1="107.289" y1="63.403" x2="122.273" y2="64.096" />
      <line id="7,60" x1="106.596" y1="78.387" x2="121.580" y2="79.080" />
      <line id="10,23" x1="70.632" y1="105.019" x2="69.939" y2="120.003" />
      <line id="11,22" x1="55.648" y1="104.326" x2="54.955" y2="119.310" />
      <line id="12,21" x1="40.664" y1="103.634" x2="39.971" y2="118.618" />
      <line id="25,41" x1="89.787" y1="142.812" x2="104.723" y2="144.196" />
      <line id="27,39" x1="87.340" y1="169.226" x2="102.276" y2="170.610" />
      <line id="28,38" x1="85.956" y1="184.162" x2="100.892" y2="185.546" />
      <line id="29,37" x1="84.572" y1="199.098" x2="99.508" y2="200.482" />
      <line id="46,59" x1="134.738" y1="104.041" x2="132.665" y2="89.185" />
      <line id="47,58" x1="149.594" y1="101.969" x2="147.521" y2="87.113" />
      <line id="48,57" x1="164.450" y1="99.897" x2="162.378" y2="85.041" />
      <line id="49,56" x1="179.306" y1="97.824" x2="177.234" y2="82.968" />
      <line id="50,55" x1="194.162" y1="95.752" x2="192.090" y2="80.896" />
    </g>
    <g style="font-family: SansSerif" transform="translate(-4.6, 4)" id="seq">
      <text x="110.753" y="-11.517">G</text>
      <text x="110.060" y="3.467">U</text>
      <text x="109.367" y="18.451">U</text>
      <text x="108.674" y="33.435">C</text>
      <text x="107.982" y="48.419">G</text>
      <text x="107.289" y="63.403">A</text>
      <text x="106.596" y="78.387">U</text>
      <text x="89.754" y="81.155">U</text>
      <text x="76.912" y="91.031">G</text>
      <text x="70.632" y="105.019">A</text>
      <text x="55.648" y="104.326">C</text>
      <text x="40.664" y="103.634">A</text>
      <text x="32.246" y="90.599">G</text>
      <text x="17.761" y="85.033">A</text>
      <text x="2.780" y="89.076">G</text>
      <text x="-6.937" y="101.174">A</text>
      <text x="-7.653" y="116.674">U</text>
      <text x="0.906" y="129.617">A</text>
      <text x="15.450" y="135.026">U</text>
      <text x="30.386" y="130.820">A</text>
      <text x="39.971" y="118.618">U</text>
      <text x="54.955" y="119.310">G</text>
      <text x="69.939" y="120.003">U</text>
      <text x="76.858" y="134.023">G</text>
      <text x="89.787" y="142.812">A</text>
      <text x="80.810" y="155.839">U</text>
      <text x="87.340" y="169.226">U</text>
      <text x="85.956" y="184.162">G</text>
      <text x="84.572" y="199.098">G</text>
      <text x="71.614" y="207.852">G</text>
      <text x="67.365" y="222.901">U</text>
      <text x="73.830" y="237.140">U</text>
      <text x="87.957" y="243.845">A</text>
      <text x="103.076" y="239.850">G</text>
      <text x="112.048" y="227.042">G</text>
      <text x="110.636" y="211.468">U</text>
      <text x="99.508" y="200.482">C</text>
      <text x="100.892" y="185.546">C</text>
      <text x="102.276" y="170.610">A</text>
      <text x="111.154" y="158.651">U</text>
      <text x="104.723" y="144.196">U</text>
      <text x="115.034" y="141.864">U</text>
      <text x="124.273" y="136.016">U</text>
      <text x="131.245" y="127.125">A</text>
      <text x="134.952" y="116.067">U</text>
      <text x="134.738" y="104.041">G</text>
      <text x="149.594" y="101.969">A</text>
      <text x="164.450" y="99.897">G</text>
      <text x="179.306" y="97.824">A</text>
      <text x="194.162" y="95.752">A</text>
      <text x="209.149" y="102.409">A</text>
      <text x="222.247" y="92.541">A</text>
      <text x="219.982" y="76.299">G</text>
      <text x="204.683" y="70.392">C</text>
      <text x="192.090" y="80.896">U</text>
      <text x="177.234" y="82.968">U</text>
      <text x="162.378" y="85.041">C</text>
      <text x="147.521" y="87.113">U</text>
      <text x="132.665" y="89.185">C</text>
      <text x="121.580" y="79.080">A</text>
      <text x="122.273" y="64.096">U</text>
      <text x="122.966" y="49.112">C</text>
      <text x="123.658" y="34.128">G</text>
      <text x="124.351" y="19.144">A</text>
      <text x="125.044" y="4.160">A</text>
      <text x="125.737" y="-10.824">U</text>
      <text x="128.815" y="-29.960">A</text>
    </g>
  </g>
</svg>
