<?xml version="1.0" encoding="UTF-8" standalone="yes"?>
<svg xmlns="http://www.w3.org/2000/svg" height="452" width="452">
<script type="text/ecmascript">
      <![CDATA[
        var shown = 1;
        function click() {
             var seq = document.getElementById("seq");
             if (shown==1) {
               seq.setAttribute("style", "visibility: hidden");
               shown = 0;
             } else {
               seq.setAttribute("style", "visibility: visible");
               shown = 1;
             }
         }
        ]]>
</script>
  <rect style="stroke: white; fill: white" height="452" x="0" y="0" width="452" onclick="click(evt)" />
  <g transform="scale(1.643548,1.643548) translate(11.770157,28.147514)">
    <polyline style="stroke: black; fill: none; stroke-width: 1.5" id="outline" points="
      113.086,-4.669
      112.422,10.316
      111.759,25.301
      111.095,40.287
      110.432,55.272
      109.768,70.257
      109.105,85.243
      93.626,86.372
      80.974,93.935
      73.495,105.720
      58.791,102.753
      44.087,99.786
      35.553,86.484
      20.095,83.194
      6.884,91.869
      3.758,107.361
      12.571,120.479
      28.096,123.441
      41.120,114.490
      55.824,117.457
      70.528,120.424
      73.907,132.528
      82.014,142.130
      76.198,155.956
      70.381,169.783
      64.564,183.609
      58.747,197.435
      43.755,201.882
      35.172,214.953
      37.050,230.477
      48.503,241.125
      64.123,241.867
      76.535,232.355
      79.878,217.079
      72.573,203.252
      78.390,189.426
      84.207,175.599
      90.024,161.773
      95.841,147.947
      107.290,148.393
      118.437,144.372
      127.548,136.197
      133.096,124.848
      134.007,111.855
      149.004,112.187
      164.000,112.519
      178.996,112.851
      193.993,113.182
      201.956,126.396
      215.809,133.185
      231.131,131.385
      243.033,121.569
      247.717,106.869
      243.688,91.977
      232.232,81.645
      217.004,79.168
      202.865,85.338
      194.324,98.186
      179.328,97.854
      164.332,97.522
      149.335,97.191
      134.339,96.859
      124.090,85.906
      124.754,70.921
      125.417,55.935
      126.081,40.950
      126.744,25.965
      127.408,10.980
      128.071,-4.006
      131.112,-23.148
    " />
    <g style="stroke: black; stroke-width: 1" id="pairs">
      <line id="1,69" x1="113.086" y1="-4.669" x2="128.071" y2="-4.006" />
      <line id="2,68" x1="112.422" y1="10.316" x2="127.408" y2="10.980" />
      <line id="3,67" x1="111.759" y1="25.301" x2="126.744" y2="25.965" />
      <line id="4,66" x1="111.095" y1="40.287" x2="126.081" y2="40.950" />
      <line id="5,65" x1="110.432" y1="55.272" x2="125.417" y2="55.935" />
      <line id="6,64" x1="109.768" y1="70.257" x2="124.754" y2="70.921" />
      <line id="7,63" x1="109.105" y1="85.243" x2="124.090" y2="85.906" />
      <line id="10,21" x1="73.495" y1="105.720" x2="70.528" y2="120.424" />
      <line id="11,20" x1="58.791" y1="102.753" x2="55.824" y2="117.457" />
      <line id="12,19" x1="44.087" y1="99.786" x2="41.120" y2="114.490" />
      <line id="23,39" x1="82.014" y1="142.130" x2="95.841" y2="147.947" />
      <line id="24,38" x1="76.198" y1="155.956" x2="90.024" y2="161.773" />
      <line id="25,37" x1="70.381" y1="169.783" x2="84.207" y2="175.599" />
      <line id="26,36" x1="64.564" y1="183.609" x2="78.390" y2="189.426" />
      <line id="27,35" x1="58.747" y1="197.435" x2="72.573" y2="203.252" />
      <line id="44,62" x1="134.007" y1="111.855" x2="134.339" y2="96.859" />
      <line id="45,61" x1="149.004" y1="112.187" x2="149.335" y2="97.191" />
      <line id="46,60" x1="164.000" y1="112.519" x2="164.332" y2="97.522" />
      <line id="47,59" x1="178.996" y1="112.851" x2="179.328" y2="97.854" />
      <line id="48,58" x1="193.993" y1="113.182" x2="194.324" y2="98.186" />
    </g>
    <g style="font-family: SansSerif" transform="translate(-4.6, 4)" id="seq">
      <text x="113.086" y="-4.669">G</text>
      <text x="112.422" y="10.316">U</text>
      <text x="111.759" y="25.301">U</text>
      <text x="111.095" y="40.287">U</text>
      <text x="110.432" y="55.272">A</text>
      <text x="109.768" y="70.257">A</text>
      <text x="109.105" y="85.243">G</text>
      <text x="93.626" y="86.372">U</text>
      <text x="80.974" y="93.935">G</text>
      <text x="73.495" y="105.720">G</text>
      <text x="58.791" y="102.753">C</text>
      <text x="44.087" y="99.786">A</text>
      <text x="35.553" y="86.484">G</text>
      <text x="20.095" y="83.194">A</text>
      <text x="6.884" y="91.869">G</text>
      <text x="3.758" y="107.361">U</text>
      <text x="12.571" y="120.479">A</text>
      <text x="28.096" y="123.441">G</text>
      <text x="41.120" y="114.490">U</text>
      <text x="55.824" y="117.457">G</text>
      <text x="70.528" y="120.424">C</text>
      <text x="73.907" y="132.528">G</text>
      <text x="82.014" y="142.130">U</text>
      <text x="76.198" y="155.956">U</text>
      <text x="70.381" y="169.783">A</text>
      <text x="64.564" y="183.609">A</text>
      <text x="58.747" y="197.435">A</text>
      <text x="43.755" y="201.882">U</text>
      <text x="35.172" y="214.953">U</text>
      <text x="37.050" y="230.477">U</text>
      <text x="48.503" y="241.125">A</text>
      <text x="64.123" y="241.867">A</text>
      <text x="76.535" y="232.355">G</text>
      <text x="79.878" y="217.079">C</text>
      <text x="72.573" y="203.252">U</text>
      <text x="78.390" y="189.426">U</text>
      <text x="84.207" y="175.599">U</text>
      <text x="90.024" y="161.773">A</text>
      <text x="95.841" y="147.947">A</text>
      <text x="107.290" y="148.393">C</text>
      <text x="118.437" y="144.372">U</text>
      <text x="127.548" y="136.197">A</text>
      <text x="133.096" y="124.848">U</text>
      <text x="134.007" y="111.855">G</text>
      <text x="149.004" y="112.187">G</text>
      <text x="164.000" y="112.519">U</text>
      <text x="178.996" y="112.851">A</text>
      <text x="193.993" y="113.182">U</text>
      <text x="201.956" y="126.396">G</text>
      <text x="215.809" y="133.185">U</text>
      <text x="231.131" y="131.385">A</text>
      <text x="243.033" y="121.569">U</text>
      <text x="247.717" y="106.869">A</text>
      <text x="243.688" y="91.977">A</text>
      <text x="232.232" y="81.645">U</text>
      <text x="217.004" y="79.168">U</text>
      <text x="202.865" y="85.338">U</text>
      <text x="194.324" y="98.186">G</text>
      <text x="179.328" y="97.854">U</text>
      <text x="164.332" y="97.522">A</text>
      <text x="149.335" y="97.191">C</text>
      <text x="134.339" y="96.859">C</text>
      <text x="124.090" y="85.906">C</text>
      <text x="124.754" y="70.921">U</text>
      <text x="125.417" y="55.935">U</text>
      <text x="126.081" y="40.950">A</text>
      <text x="126.744" y="25.965">A</text>
      <text x="127.408" y="10.980">A</text>
      <text x="128.071" y="-4.006">U</text>
      <text x="131.112" y="-23.148">A</text>
    </g>
  </g>
</svg>
