<?xml version="1.0" encoding="UTF-8" standalone="yes"?>
<svg xmlns="http://www.w3.org/2000/svg" height="452" width="452">
<script type="text/ecmascript">
      <![CDATA[
        var shown = 1;
        function click() {
             var seq = document.getElementById("seq");
             if (shown==1) {
               seq.setAttribute("style", "visibility: hidden");
               shown = 0;
             } else {
               seq.setAttribute("style", "visibility: visible");
               shown = 1;
             }
         }
        ]]>
</script>
  <rect style="stroke: white; fill: white" height="452" x="0" y="0" width="452" onclick="click(evt)" />
  <g transform="scale(1.565748,1.565748) translate(47.588593,39.171455)">
    <polyline style="stroke: black; fill: none; stroke-width: 1.5" id="outline" points="
      109.484,-15.741
      108.781,-0.757
      108.078,14.226
      107.374,29.210
      106.671,44.193
      105.968,59.177
      105.265,74.160
      87.983,77.780
      75.283,88.699
      69.757,103.544
      54.761,103.896
      39.765,104.247
      24.769,104.599
      14.576,92.740
      -0.864,90.259
      -14.259,98.327
      -19.286,113.134
      -13.571,127.690
      0.188,135.121
      15.494,131.919
      25.121,119.595
      40.116,119.243
      55.112,118.892
      70.108,118.540
      78.866,133.012
      93.918,140.731
      94.621,155.715
      95.324,170.698
      96.027,185.682
      96.730,200.665
      85.114,211.134
      82.995,226.627
      91.374,239.830
      106.296,244.508
      120.714,238.453
      127.820,224.524
      124.260,209.297
      111.714,199.962
      111.011,184.979
      110.308,169.995
      109.605,155.012
      108.901,140.028
      118.365,136.675
      126.562,130.290
      132.518,121.353
      135.444,110.656
      134.831,99.232
      149.498,96.090
      164.165,92.949
      178.833,89.807
      193.500,86.666
      212.789,84.775
      208.730,65.823
      190.358,71.998
      175.691,75.140
      161.024,78.282
      146.356,81.423
      131.689,84.565
      120.249,74.863
      120.952,59.880
      121.655,44.896
      122.358,29.913
      123.061,14.929
      123.764,-0.054
      124.467,-15.038
      127.558,-34.171
    " />
    <g style="stroke: black; stroke-width: 1" id="pairs">
      <line id="1,65" x1="109.484" y1="-15.741" x2="124.467" y2="-15.038" />
      <line id="2,64" x1="108.781" y1="-0.757" x2="123.764" y2="-0.054" />
      <line id="3,63" x1="108.078" y1="14.226" x2="123.061" y2="14.929" />
      <line id="4,62" x1="107.374" y1="29.210" x2="122.358" y2="29.913" />
      <line id="5,61" x1="106.671" y1="44.193" x2="121.655" y2="44.896" />
      <line id="6,60" x1="105.968" y1="59.177" x2="120.952" y2="59.880" />
      <line id="7,59" x1="105.265" y1="74.160" x2="120.249" y2="74.863" />
      <line id="10,24" x1="69.757" y1="103.544" x2="70.108" y2="118.540" />
      <line id="11,23" x1="54.761" y1="103.896" x2="55.112" y2="118.892" />
      <line id="12,22" x1="39.765" y1="104.247" x2="40.116" y2="119.243" />
      <line id="13,21" x1="24.769" y1="104.599" x2="25.121" y2="119.595" />
      <line id="26,42" x1="93.918" y1="140.731" x2="108.901" y2="140.028" />
      <line id="27,41" x1="94.621" y1="155.715" x2="109.605" y2="155.012" />
      <line id="28,40" x1="95.324" y1="170.698" x2="110.308" y2="169.995" />
      <line id="29,39" x1="96.027" y1="185.682" x2="111.011" y2="184.979" />
      <line id="30,38" x1="96.730" y1="200.665" x2="111.714" y2="199.962" />
      <line id="47,58" x1="134.831" y1="99.232" x2="131.689" y2="84.565" />
      <line id="48,57" x1="149.498" y1="96.090" x2="146.356" y2="81.423" />
      <line id="49,56" x1="164.165" y1="92.949" x2="161.024" y2="78.282" />
      <line id="50,55" x1="178.833" y1="89.807" x2="175.691" y2="75.140" />
      <line id="51,54" x1="193.500" y1="86.666" x2="190.358" y2="71.998" />
    </g>
    <g style="font-family: SansSerif" transform="translate(-4.6, 4)" id="seq">
      <text x="109.484" y="-15.741">G</text>
      <text x="108.781" y="-0.757">A</text>
      <text x="108.078" y="14.226">U</text>
      <text x="107.374" y="29.210">A</text>
      <text x="106.671" y="44.193">A</text>
      <text x="105.968" y="59.177">A</text>
      <text x="105.265" y="74.160">A</text>
      <text x="87.983" y="77.780">U</text>
      <text x="75.283" y="88.699">A</text>
      <text x="69.757" y="103.544">A</text>
      <text x="54.761" y="103.896">G</text>
      <text x="39.765" y="104.247">C</text>
      <text x="24.769" y="104.599">U</text>
      <text x="14.576" y="92.740">A</text>
      <text x="-0.864" y="90.259">A</text>
      <text x="-14.259" y="98.327">G</text>
      <text x="-19.286" y="113.134">A</text>
      <text x="-13.571" y="127.690">U</text>
      <text x="0.188" y="135.121">U</text>
      <text x="15.494" y="131.919">A</text>
      <text x="25.121" y="119.595">A</text>
      <text x="40.116" y="119.243">G</text>
      <text x="55.112" y="118.892">C</text>
      <text x="70.108" y="118.540">U</text>
      <text x="78.866" y="133.012">G</text>
      <text x="93.918" y="140.731">U</text>
      <text x="94.621" y="155.715">U</text>
      <text x="95.324" y="170.698">G</text>
      <text x="96.027" y="185.682">G</text>
      <text x="96.730" y="200.665">G</text>
      <text x="85.114" y="211.134">U</text>
      <text x="82.995" y="226.627">U</text>
      <text x="91.374" y="239.830">C</text>
      <text x="106.296" y="244.508">A</text>
      <text x="120.714" y="238.453">U</text>
      <text x="127.820" y="224.524">A</text>
      <text x="124.260" y="209.297">C</text>
      <text x="111.714" y="199.962">C</text>
      <text x="111.011" y="184.979">U</text>
      <text x="110.308" y="169.995">C</text>
      <text x="109.605" y="155.012">A</text>
      <text x="108.901" y="140.028">A</text>
      <text x="118.365" y="136.675">A</text>
      <text x="126.562" y="130.290">A</text>
      <text x="132.518" y="121.353">A</text>
      <text x="135.444" y="110.656">U</text>
      <text x="134.831" y="99.232">A</text>
      <text x="149.498" y="96.090">G</text>
      <text x="164.165" y="92.949">A</text>
      <text x="178.833" y="89.807">U</text>
      <text x="193.500" y="86.666">A</text>
      <text x="212.789" y="84.775">G</text>
      <text x="208.730" y="65.823">A</text>
      <text x="190.358" y="71.998">U</text>
      <text x="175.691" y="75.140">A</text>
      <text x="161.024" y="78.282">U</text>
      <text x="146.356" y="81.423">C</text>
      <text x="131.689" y="84.565">U</text>
      <text x="120.249" y="74.863">U</text>
      <text x="120.952" y="59.880">U</text>
      <text x="121.655" y="44.896">U</text>
      <text x="122.358" y="29.913">U</text>
      <text x="123.061" y="14.929">A</text>
      <text x="123.764" y="-0.054">U</text>
      <text x="124.467" y="-15.038">U</text>
      <text x="127.558" y="-34.171">A</text>
    </g>
  </g>
</svg>
