<?xml version="1.0" encoding="UTF-8" standalone="yes"?>
<svg xmlns="http://www.w3.org/2000/svg" height="452" width="452">
<script type="text/ecmascript">
      <![CDATA[
        var shown = 1;
        function click() {
             var seq = document.getElementById("seq");
             if (shown==1) {
               seq.setAttribute("style", "visibility: hidden");
               shown = 0;
             } else {
               seq.setAttribute("style", "visibility: visible");
               shown = 1;
             }
         }
        ]]>
</script>
  <rect style="stroke: white; fill: white" height="452" x="0" y="0" width="452" onclick="click(evt)" />
  <g transform="scale(1.594595,1.594595) translate(26.435379,34.484489)">
    <polyline style="stroke: black; fill: none; stroke-width: 1.5" id="outline" points="
      112.158,-11.041
      111.466,3.943
      110.773,18.926
      110.080,33.910
      109.387,48.894
      108.695,63.878
      108.002,78.862
      91.416,80.791
      78.224,89.650
      70.947,102.863
      56.091,100.791
      41.235,98.719
      31.912,85.957
      16.283,83.608
      3.621,93.066
      1.437,108.718
      11.028,121.280
      26.703,123.298
      39.162,113.575
      54.019,115.647
      68.875,117.719
      73.782,131.572
      84.472,141.657
      80.367,156.084
      76.262,170.512
      72.157,184.939
      68.053,199.366
      53.707,205.590
      46.765,219.603
      50.504,234.787
      63.158,243.973
      78.754,242.824
      89.926,231.883
      91.400,216.315
      82.480,203.471
      86.585,189.044
      90.690,174.617
      94.795,160.189
      98.900,145.762
      108.796,145.425
      118.356,141.952
      126.586,135.526
      132.578,126.648
      135.607,116.094
      135.219,104.850
      150.155,103.466
      165.091,102.082
      180.027,100.698
      194.963,99.314
      208.174,108.416
      223.485,103.624
      229.150,88.614
      220.823,74.901
      204.893,73.004
      193.579,84.378
      178.643,85.762
      163.707,87.146
      148.771,88.530
      133.835,89.914
      122.986,79.555
      123.679,64.571
      124.371,49.587
      125.064,34.603
      125.757,19.619
      126.450,4.635
      127.142,-10.349
      130.220,-29.484
    " />
    <g style="stroke: black; stroke-width: 1" id="pairs">
      <line id="1,66" x1="112.158" y1="-11.041" x2="127.142" y2="-10.349" />
      <line id="2,65" x1="111.466" y1=" 3.943" x2="126.450" y2=" 4.635" />
      <line id="3,64" x1="110.773" y1="18.926" x2="125.757" y2="19.619" />
      <line id="4,63" x1="110.080" y1="33.910" x2="125.064" y2="34.603" />
      <line id="5,62" x1="109.387" y1="48.894" x2="124.371" y2="49.587" />
      <line id="6,61" x1="108.695" y1="63.878" x2="123.679" y2="64.571" />
      <line id="7,60" x1="108.002" y1="78.862" x2="122.986" y2="79.555" />
      <line id="10,21" x1="70.947" y1="102.863" x2="68.875" y2="117.719" />
      <line id="11,20" x1="56.091" y1="100.791" x2="54.019" y2="115.647" />
      <line id="12,19" x1="41.235" y1="98.719" x2="39.162" y2="113.575" />
      <line id="23,39" x1="84.472" y1="141.657" x2="98.900" y2="145.762" />
      <line id="24,38" x1="80.367" y1="156.084" x2="94.795" y2="160.189" />
      <line id="25,37" x1="76.262" y1="170.512" x2="90.690" y2="174.617" />
      <line id="26,36" x1="72.157" y1="184.939" x2="86.585" y2="189.044" />
      <line id="27,35" x1="68.053" y1="199.366" x2="82.480" y2="203.471" />
      <line id="45,59" x1="135.219" y1="104.850" x2="133.835" y2="89.914" />
      <line id="46,58" x1="150.155" y1="103.466" x2="148.771" y2="88.530" />
      <line id="47,57" x1="165.091" y1="102.082" x2="163.707" y2="87.146" />
      <line id="48,56" x1="180.027" y1="100.698" x2="178.643" y2="85.762" />
      <line id="49,55" x1="194.963" y1="99.314" x2="193.579" y2="84.378" />
    </g>
    <g style="font-family: SansSerif" transform="translate(-4.6, 4)" id="seq">
      <text x="112.158" y="-11.041">U</text>
      <text x="111.466" y="3.943">A</text>
      <text x="110.773" y="18.926">A</text>
      <text x="110.080" y="33.910">A</text>
      <text x="109.387" y="48.894">U</text>
      <text x="108.695" y="63.878">A</text>
      <text x="108.002" y="78.862">A</text>
      <text x="91.416" y="80.791">A</text>
      <text x="78.224" y="89.650">A</text>
      <text x="70.947" y="102.863">A</text>
      <text x="56.091" y="100.791">C</text>
      <text x="41.235" y="98.719">U</text>
      <text x="31.912" y="85.957">G</text>
      <text x="16.283" y="83.608">A</text>
      <text x="3.621" y="93.066">U</text>
      <text x="1.437" y="108.718">A</text>
      <text x="11.028" y="121.280">A</text>
      <text x="26.703" y="123.298">G</text>
      <text x="39.162" y="113.575">A</text>
      <text x="54.019" y="115.647">G</text>
      <text x="68.875" y="117.719">U</text>
      <text x="73.782" y="131.572">G</text>
      <text x="84.472" y="141.657">A</text>
      <text x="80.367" y="156.084">U</text>
      <text x="76.262" y="170.512">U</text>
      <text x="72.157" y="184.939">G</text>
      <text x="68.053" y="199.366">A</text>
      <text x="53.707" y="205.590">U</text>
      <text x="46.765" y="219.603">U</text>
      <text x="50.504" y="234.787">G</text>
      <text x="63.158" y="243.973">U</text>
      <text x="78.754" y="242.824">U</text>
      <text x="89.926" y="231.883">G</text>
      <text x="91.400" y="216.315">G</text>
      <text x="82.480" y="203.471">U</text>
      <text x="86.585" y="189.044">C</text>
      <text x="90.690" y="174.617">A</text>
      <text x="94.795" y="160.189">A</text>
      <text x="98.900" y="145.762">U</text>
      <text x="108.796" y="145.425">U</text>
      <text x="118.356" y="141.952">U</text>
      <text x="126.586" y="135.526">G</text>
      <text x="132.578" y="126.648">G</text>
      <text x="135.607" y="116.094">U</text>
      <text x="135.219" y="104.850">G</text>
      <text x="150.155" y="103.466">U</text>
      <text x="165.091" y="102.082">G</text>
      <text x="180.027" y="100.698">G</text>
      <text x="194.963" y="99.314">G</text>
      <text x="208.174" y="108.416">G</text>
      <text x="223.485" y="103.624">U</text>
      <text x="229.150" y="88.614">U</text>
      <text x="220.823" y="74.901">A</text>
      <text x="204.893" y="73.004">U</text>
      <text x="193.579" y="84.378">C</text>
      <text x="178.643" y="85.762">C</text>
      <text x="163.707" y="87.146">C</text>
      <text x="148.771" y="88.530">A</text>
      <text x="133.835" y="89.914">U</text>
      <text x="122.986" y="79.555">U</text>
      <text x="123.679" y="64.571">U</text>
      <text x="124.371" y="49.587">A</text>
      <text x="125.064" y="34.603">U</text>
      <text x="125.757" y="19.619">U</text>
      <text x="126.450" y="4.635">U</text>
      <text x="127.142" y="-10.349">A</text>
      <text x="130.220" y="-29.484">G</text>
    </g>
  </g>
</svg>
