<?xml version="1.0" encoding="UTF-8" standalone="yes"?>
<svg xmlns="http://www.w3.org/2000/svg" height="452" width="452">
<script type="text/ecmascript">
      <![CDATA[
        var shown = 1;
        function click() {
             var seq = document.getElementById("seq");
             if (shown==1) {
               seq.setAttribute("style", "visibility: hidden");
               shown = 0;
             } else {
               seq.setAttribute("style", "visibility: visible");
               shown = 1;
             }
         }
        ]]>
</script>
  <rect style="stroke: white; fill: white" height="452" x="0" y="0" width="452" onclick="click(evt)" />
  <g transform="scale(1.566818,1.566818) translate(47.797432,39.198723)">
    <polyline style="stroke: black; fill: none; stroke-width: 1.5" id="outline" points="
      109.900,-15.756
      109.207,-0.772
      108.514,14.212
      107.821,29.196
      107.129,44.180
      106.436,59.164
      105.743,74.148
      88.601,77.464
      75.838,88.025
      70.044,102.585
      55.044,102.585
      40.044,102.585
      25.044,102.585
      15.132,90.491
      -0.245,87.648
      -13.826,95.400
      -19.199,110.085
      -13.826,124.771
      -0.245,132.523
      15.132,129.680
      25.044,117.585
      40.044,117.585
      55.044,117.585
      70.044,117.585
      78.164,131.921
      92.500,140.041
      92.500,155.041
      92.500,170.041
      92.500,185.041
      92.500,200.041
      80.405,209.953
      77.563,225.330
      85.314,238.911
      100.000,244.284
      114.686,238.911
      122.437,225.330
      119.595,209.953
      107.500,200.041
      107.500,185.041
      107.500,170.041
      107.500,155.041
      107.500,140.041
      117.255,137.015
      125.800,130.798
      132.092,121.871
      135.277,111.053
      134.799,99.432
      149.544,96.676
      164.288,93.920
      179.033,91.164
      193.028,99.007
      207.831,92.823
      212.087,77.355
      202.530,64.468
      186.493,64.049
      176.277,76.419
      161.532,79.175
      146.787,81.931
      132.043,84.688
      120.727,74.841
      121.420,59.857
      122.113,44.873
      122.805,29.889
      123.498,14.905
      124.191,-0.079
      124.884,-15.063
      127.962,-34.199
    " />
    <g style="stroke: black; stroke-width: 1" id="pairs">
      <line id="1,66" x1="109.900" y1="-15.756" x2="124.884" y2="-15.063" />
      <line id="2,65" x1="109.207" y1="-0.772" x2="124.191" y2="-0.079" />
      <line id="3,64" x1="108.514" y1="14.212" x2="123.498" y2="14.905" />
      <line id="4,63" x1="107.821" y1="29.196" x2="122.805" y2="29.889" />
      <line id="5,62" x1="107.129" y1="44.180" x2="122.113" y2="44.873" />
      <line id="6,61" x1="106.436" y1="59.164" x2="121.420" y2="59.857" />
      <line id="7,60" x1="105.743" y1="74.148" x2="120.727" y2="74.841" />
      <line id="10,24" x1="70.044" y1="102.585" x2="70.044" y2="117.585" />
      <line id="11,23" x1="55.044" y1="102.585" x2="55.044" y2="117.585" />
      <line id="12,22" x1="40.044" y1="102.585" x2="40.044" y2="117.585" />
      <line id="13,21" x1="25.044" y1="102.585" x2="25.044" y2="117.585" />
      <line id="26,42" x1="92.500" y1="140.041" x2="107.500" y2="140.041" />
      <line id="27,41" x1="92.500" y1="155.041" x2="107.500" y2="155.041" />
      <line id="28,40" x1="92.500" y1="170.041" x2="107.500" y2="170.041" />
      <line id="29,39" x1="92.500" y1="185.041" x2="107.500" y2="185.041" />
      <line id="30,38" x1="92.500" y1="200.041" x2="107.500" y2="200.041" />
      <line id="47,59" x1="134.799" y1="99.432" x2="132.043" y2="84.688" />
      <line id="48,58" x1="149.544" y1="96.676" x2="146.787" y2="81.931" />
      <line id="49,57" x1="164.288" y1="93.920" x2="161.532" y2="79.175" />
      <line id="50,56" x1="179.033" y1="91.164" x2="176.277" y2="76.419" />
    </g>
    <g style="font-family: SansSerif" transform="translate(-4.6, 4)" id="seq">
      <text x="109.900" y="-15.756">U</text>
      <text x="109.207" y="-0.772">A</text>
      <text x="108.514" y="14.212">U</text>
      <text x="107.821" y="29.196">G</text>
      <text x="107.129" y="44.180">A</text>
      <text x="106.436" y="59.164">A</text>
      <text x="105.743" y="74.148">G</text>
      <text x="88.601" y="77.464">A</text>
      <text x="75.838" y="88.025">A</text>
      <text x="70.044" y="102.585">G</text>
      <text x="55.044" y="102.585">U</text>
      <text x="40.044" y="102.585">G</text>
      <text x="25.044" y="102.585">U</text>
      <text x="15.132" y="90.491">A</text>
      <text x="-0.245" y="87.648">A</text>
      <text x="-13.826" y="95.400">A</text>
      <text x="-19.199" y="110.085">U</text>
      <text x="-13.826" y="124.771">G</text>
      <text x="-0.245" y="132.523">U</text>
      <text x="15.132" y="129.680">U</text>
      <text x="25.044" y="117.585">G</text>
      <text x="40.044" y="117.585">C</text>
      <text x="55.044" y="117.585">A</text>
      <text x="70.044" y="117.585">U</text>
      <text x="78.164" y="131.921">A</text>
      <text x="92.500" y="140.041">G</text>
      <text x="92.500" y="155.041">G</text>
      <text x="92.500" y="170.041">A</text>
      <text x="92.500" y="185.041">A</text>
      <text x="92.500" y="200.041">A</text>
      <text x="80.405" y="209.953">A</text>
      <text x="77.563" y="225.330">U</text>
      <text x="85.314" y="238.911">U</text>
      <text x="100.000" y="244.284">U</text>
      <text x="114.686" y="238.911">G</text>
      <text x="122.437" y="225.330">A</text>
      <text x="119.595" y="209.953">A</text>
      <text x="107.500" y="200.041">U</text>
      <text x="107.500" y="185.041">U</text>
      <text x="107.500" y="170.041">U</text>
      <text x="107.500" y="155.041">C</text>
      <text x="107.500" y="140.041">C</text>
      <text x="117.255" y="137.015">A</text>
      <text x="125.800" y="130.798">G</text>
      <text x="132.092" y="121.871">G</text>
      <text x="135.277" y="111.053">A</text>
      <text x="134.799" y="99.432">A</text>
      <text x="149.544" y="96.676">G</text>
      <text x="164.288" y="93.920">A</text>
      <text x="179.033" y="91.164">U</text>
      <text x="193.028" y="99.007">G</text>
      <text x="207.831" y="92.823">A</text>
      <text x="212.087" y="77.355">A</text>
      <text x="202.530" y="64.468">U</text>
      <text x="186.493" y="64.049">U</text>
      <text x="176.277" y="76.419">G</text>
      <text x="161.532" y="79.175">U</text>
      <text x="146.787" y="81.931">C</text>
      <text x="132.043" y="84.688">U</text>
      <text x="120.727" y="74.841">C</text>
      <text x="121.420" y="59.857">U</text>
      <text x="122.113" y="44.873">U</text>
      <text x="122.805" y="29.889">U</text>
      <text x="123.498" y="14.905">A</text>
      <text x="124.191" y="-0.079">U</text>
      <text x="124.884" y="-15.063">A</text>
      <text x="127.962" y="-34.199">A</text>
    </g>
  </g>
</svg>
