<?xml version="1.0" encoding="UTF-8" standalone="yes"?>
<svg xmlns="http://www.w3.org/2000/svg" height="452" width="452">
<script type="text/ecmascript">
      <![CDATA[
        var shown = 1;
        function click() {
             var seq = document.getElementById("seq");
             if (shown==1) {
               seq.setAttribute("style", "visibility: hidden");
               shown = 0;
             } else {
               seq.setAttribute("style", "visibility: visible");
               shown = 1;
             }
         }
        ]]>
</script>
  <rect style="stroke: white; fill: white" height="452" x="0" y="0" width="452" onclick="click(evt)" />
  <g transform="scale(1.560233,1.560233) translate(28.083054,39.359772)">
    <polyline style="stroke: black; fill: none; stroke-width: 1.5" id="outline" points="
      113.375,-15.893
      112.702,-0.908
      112.029,14.077
      111.356,29.062
      110.683,44.047
      110.010,59.032
      109.337,74.016
      95.303,74.395
      82.823,79.744
      73.527,89.001
      68.491,100.615
      53.552,99.270
      38.612,97.926
      28.677,85.634
      12.952,84.051
      0.767,94.116
      -0.650,109.856
      9.543,121.935
      25.298,123.185
      37.268,112.865
      52.207,114.210
      67.147,115.554
      70.577,126.296
      77.409,135.269
      86.851,141.433
      84.173,156.192
      81.494,170.951
      78.816,185.710
      76.138,200.469
      62.468,208.063
      56.925,222.685
      62.127,237.432
      75.617,245.341
      91.026,242.677
      101.078,230.698
      101.027,215.060
      90.897,203.148
      93.575,188.389
      96.253,173.630
      98.932,158.871
      101.610,144.112
      113.663,142.291
      124.581,136.110
      132.800,126.163
      137.042,113.601
      136.508,99.995
      151.448,98.650
      166.388,97.306
      181.327,95.961
      196.267,94.617
      208.237,104.936
      223.991,103.686
      234.184,91.608
      232.767,75.867
      220.582,65.803
      204.857,67.386
      194.922,79.677
      179.983,81.022
      165.043,82.366
      150.103,83.711
      135.164,85.055
      124.322,74.689
      124.995,59.704
      125.668,44.720
      126.341,29.735
      127.014,14.750
      127.687,-0.235
      128.360,-15.220
      131.412,-34.360
    " />
    <g style="stroke: black; stroke-width: 1" id="pairs">
      <line id="1,68" x1="113.375" y1="-15.893" x2="128.360" y2="-15.220" />
      <line id="2,67" x1="112.702" y1="-0.908" x2="127.687" y2="-0.235" />
      <line id="3,66" x1="112.029" y1="14.077" x2="127.014" y2="14.750" />
      <line id="4,65" x1="111.356" y1="29.062" x2="126.341" y2="29.735" />
      <line id="5,64" x1="110.683" y1="44.047" x2="125.668" y2="44.720" />
      <line id="6,63" x1="110.010" y1="59.032" x2="124.995" y2="59.704" />
      <line id="7,62" x1="109.337" y1="74.016" x2="124.322" y2="74.689" />
      <line id="11,22" x1="68.491" y1="100.615" x2="67.147" y2="115.554" />
      <line id="12,21" x1="53.552" y1="99.270" x2="52.207" y2="114.210" />
      <line id="13,20" x1="38.612" y1="97.926" x2="37.268" y2="112.865" />
      <line id="25,41" x1="86.851" y1="141.433" x2="101.610" y2="144.112" />
      <line id="26,40" x1="84.173" y1="156.192" x2="98.932" y2="158.871" />
      <line id="27,39" x1="81.494" y1="170.951" x2="96.253" y2="173.630" />
      <line id="28,38" x1="78.816" y1="185.710" x2="93.575" y2="188.389" />
      <line id="29,37" x1="76.138" y1="200.469" x2="90.897" y2="203.148" />
      <line id="46,61" x1="136.508" y1="99.995" x2="135.164" y2="85.055" />
      <line id="47,60" x1="151.448" y1="98.650" x2="150.103" y2="83.711" />
      <line id="48,59" x1="166.388" y1="97.306" x2="165.043" y2="82.366" />
      <line id="49,58" x1="181.327" y1="95.961" x2="179.983" y2="81.022" />
      <line id="50,57" x1="196.267" y1="94.617" x2="194.922" y2="79.677" />
    </g>
    <g style="font-family: SansSerif" transform="translate(-4.6, 4)" id="seq">
      <text x="113.375" y="-15.893">G</text>
      <text x="112.702" y="-0.908">A</text>
      <text x="112.029" y="14.077">G</text>
      <text x="111.356" y="29.062">C</text>
      <text x="110.683" y="44.047">A</text>
      <text x="110.010" y="59.032">U</text>
      <text x="109.337" y="74.016">A</text>
      <text x="95.303" y="74.395">G</text>
      <text x="82.823" y="79.744">A</text>
      <text x="73.527" y="89.001">U</text>
      <text x="68.491" y="100.615">C</text>
      <text x="53.552" y="99.270">A</text>
      <text x="38.612" y="97.926">A</text>
      <text x="28.677" y="85.634">G</text>
      <text x="12.952" y="84.051">U</text>
      <text x="0.767" y="94.116">G</text>
      <text x="-0.650" y="109.856">U</text>
      <text x="9.543" y="121.935">A</text>
      <text x="25.298" y="123.185">U</text>
      <text x="37.268" y="112.865">U</text>
      <text x="52.207" y="114.210">U</text>
      <text x="67.147" y="115.554">G</text>
      <text x="70.577" y="126.296">U</text>
      <text x="77.409" y="135.269">U</text>
      <text x="86.851" y="141.433">U</text>
      <text x="84.173" y="156.192">A</text>
      <text x="81.494" y="170.951">A</text>
      <text x="78.816" y="185.710">G</text>
      <text x="76.138" y="200.469">A</text>
      <text x="62.468" y="208.063">U</text>
      <text x="56.925" y="222.685">U</text>
      <text x="62.127" y="237.432">U</text>
      <text x="75.617" y="245.341">C</text>
      <text x="91.026" y="242.677">G</text>
      <text x="101.078" y="230.698">G</text>
      <text x="101.027" y="215.060">C</text>
      <text x="90.897" y="203.148">U</text>
      <text x="93.575" y="188.389">C</text>
      <text x="96.253" y="173.630">U</text>
      <text x="98.932" y="158.871">U</text>
      <text x="101.610" y="144.112">A</text>
      <text x="113.663" y="142.291">A</text>
      <text x="124.581" y="136.110">U</text>
      <text x="132.800" y="126.163">G</text>
      <text x="137.042" y="113.601">A</text>
      <text x="136.508" y="99.995">G</text>
      <text x="151.448" y="98.650">G</text>
      <text x="166.388" y="97.306">U</text>
      <text x="181.327" y="95.961">G</text>
      <text x="196.267" y="94.617">A</text>
      <text x="208.237" y="104.936">U</text>
      <text x="223.991" y="103.686">A</text>
      <text x="234.184" y="91.608">A</text>
      <text x="232.767" y="75.867">A</text>
      <text x="220.582" y="65.803">A</text>
      <text x="204.857" y="67.386">U</text>
      <text x="194.922" y="79.677">U</text>
      <text x="179.983" y="81.022">C</text>
      <text x="165.043" y="82.366">A</text>
      <text x="150.103" y="83.711">C</text>
      <text x="135.164" y="85.055">C</text>
      <text x="124.322" y="74.689">U</text>
      <text x="124.995" y="59.704">A</text>
      <text x="125.668" y="44.720">U</text>
      <text x="126.341" y="29.735">G</text>
      <text x="127.014" y="14.750">U</text>
      <text x="127.687" y="-0.235">U</text>
      <text x="128.360" y="-15.220">U</text>
      <text x="131.412" y="-34.360">U</text>
    </g>
  </g>
</svg>
