<?xml version="1.0" encoding="UTF-8" standalone="yes"?>
<svg xmlns="http://www.w3.org/2000/svg" height="452" width="452">
<script type="text/ecmascript">
      <![CDATA[
        var shown = 1;
        function click() {
             var seq = document.getElementById("seq");
             if (shown==1) {
               seq.setAttribute("style", "visibility: hidden");
               shown = 0;
             } else {
               seq.setAttribute("style", "visibility: visible");
               shown = 1;
             }
         }
        ]]>
</script>
  <rect style="stroke: white; fill: white" height="452" x="0" y="0" width="452" onclick="click(evt)" />
  <g transform="scale(1.639571,1.639571) translate(-0.335724,27.826263)">
    <polyline style="stroke: black; fill: none; stroke-width: 1.5" id="outline" points="
      114.922,-4.359
      114.249,10.625
      113.576,25.610
      112.903,40.595
      112.230,55.580
      111.557,70.565
      110.884,85.550
      98.366,85.126
      86.888,88.956
      77.795,96.282
      72.047,105.956
      65.074,91.959
      50.715,85.766
      35.750,90.301
      27.244,103.423
      29.214,118.936
      40.730,129.515
      56.354,130.166
      68.709,120.580
      70.149,129.429
      74.039,137.507
      80.060,144.150
      73.551,157.665
      67.043,171.179
      60.535,184.694
      54.027,198.208
      38.829,201.891
      29.596,214.512
      30.687,230.112
      41.587,241.324
      57.150,242.856
      70.026,233.983
      74.137,218.895
      67.541,204.717
      74.049,191.202
      80.558,177.688
      87.066,164.173
      93.574,150.658
      106.155,151.705
      118.511,147.638
      128.590,138.819
      134.599,126.422
      135.316,112.280
      150.301,112.953
      165.286,113.626
      180.271,114.299
      195.256,114.971
      202.917,128.362
      216.612,135.465
      231.971,134.014
      244.093,124.471
      249.109,109.882
      245.420,94.903
      234.203,84.312
      219.036,81.490
      204.759,87.336
      195.929,99.987
      180.944,99.314
      165.959,98.641
      150.974,97.968
      135.989,97.295
      125.869,86.223
      126.542,71.238
      127.215,56.253
      127.888,41.268
      128.561,26.283
      129.234,11.298
      129.907,-3.686
      132.960,-22.826
    " />
    <g style="stroke: black; stroke-width: 1" id="pairs">
      <line id="1,68" x1="114.922" y1="-4.359" x2="129.907" y2="-3.686" />
      <line id="2,67" x1="114.249" y1="10.625" x2="129.234" y2="11.298" />
      <line id="3,66" x1="113.576" y1="25.610" x2="128.561" y2="26.283" />
      <line id="4,65" x1="112.903" y1="40.595" x2="127.888" y2="41.268" />
      <line id="5,64" x1="112.230" y1="55.580" x2="127.215" y2="56.253" />
      <line id="6,63" x1="111.557" y1="70.565" x2="126.542" y2="71.238" />
      <line id="7,62" x1="110.884" y1="85.550" x2="125.869" y2="86.223" />
      <line id="11,19" x1="72.047" y1="105.956" x2="68.709" y2="120.580" />
      <line id="22,38" x1="80.060" y1="144.150" x2="93.574" y2="150.658" />
      <line id="23,37" x1="73.551" y1="157.665" x2="87.066" y2="164.173" />
      <line id="24,36" x1="67.043" y1="171.179" x2="80.558" y2="177.688" />
      <line id="25,35" x1="60.535" y1="184.694" x2="74.049" y2="191.202" />
      <line id="26,34" x1="54.027" y1="198.208" x2="67.541" y2="204.717" />
      <line id="43,61" x1="135.316" y1="112.280" x2="135.989" y2="97.295" />
      <line id="44,60" x1="150.301" y1="112.953" x2="150.974" y2="97.968" />
      <line id="45,59" x1="165.286" y1="113.626" x2="165.959" y2="98.641" />
      <line id="46,58" x1="180.271" y1="114.299" x2="180.944" y2="99.314" />
      <line id="47,57" x1="195.256" y1="114.971" x2="195.929" y2="99.987" />
    </g>
    <g style="font-family: SansSerif" transform="translate(-4.6, 4)" id="seq">
      <text x="114.922" y="-4.359">A</text>
      <text x="114.249" y="10.625">A</text>
      <text x="113.576" y="25.610">G</text>
      <text x="112.903" y="40.595">A</text>
      <text x="112.230" y="55.580">U</text>
      <text x="111.557" y="70.565">A</text>
      <text x="110.884" y="85.550">G</text>
      <text x="98.366" y="85.126">G</text>
      <text x="86.888" y="88.956">U</text>
      <text x="77.795" y="96.282">C</text>
      <text x="72.047" y="105.956">U</text>
      <text x="65.074" y="91.959">G</text>
      <text x="50.715" y="85.766">G</text>
      <text x="35.750" y="90.301">G</text>
      <text x="27.244" y="103.423">U</text>
      <text x="29.214" y="118.936">A</text>
      <text x="40.730" y="129.515">C</text>
      <text x="56.354" y="130.166">A</text>
      <text x="68.709" y="120.580">A</text>
      <text x="70.149" y="129.429">A</text>
      <text x="74.039" y="137.507">G</text>
      <text x="80.060" y="144.150">U</text>
      <text x="73.551" y="157.665">A</text>
      <text x="67.043" y="171.179">G</text>
      <text x="60.535" y="184.694">G</text>
      <text x="54.027" y="198.208">G</text>
      <text x="38.829" y="201.891">C</text>
      <text x="29.596" y="214.512">U</text>
      <text x="30.687" y="230.112">G</text>
      <text x="41.587" y="241.324">C</text>
      <text x="57.150" y="242.856">U</text>
      <text x="70.026" y="233.983">A</text>
      <text x="74.137" y="218.895">A</text>
      <text x="67.541" y="204.717">C</text>
      <text x="74.049" y="191.202">U</text>
      <text x="80.558" y="177.688">U</text>
      <text x="87.066" y="164.173">U</text>
      <text x="93.574" y="150.658">A</text>
      <text x="106.155" y="151.705">U</text>
      <text x="118.511" y="147.638">U</text>
      <text x="128.590" y="138.819">U</text>
      <text x="134.599" y="126.422">U</text>
      <text x="135.316" y="112.280">G</text>
      <text x="150.301" y="112.953">A</text>
      <text x="165.286" y="113.626">G</text>
      <text x="180.271" y="114.299">C</text>
      <text x="195.256" y="114.971">A</text>
      <text x="202.917" y="128.362">G</text>
      <text x="216.612" y="135.465">U</text>
      <text x="231.971" y="134.014">U</text>
      <text x="244.093" y="124.471">C</text>
      <text x="249.109" y="109.882">G</text>
      <text x="245.420" y="94.903">A</text>
      <text x="234.203" y="84.312">U</text>
      <text x="219.036" y="81.490">U</text>
      <text x="204.759" y="87.336">C</text>
      <text x="195.929" y="99.987">U</text>
      <text x="180.944" y="99.314">G</text>
      <text x="165.959" y="98.641">U</text>
      <text x="150.974" y="97.968">U</text>
      <text x="135.989" y="97.295">U</text>
      <text x="125.869" y="86.223">U</text>
      <text x="126.542" y="71.238">U</text>
      <text x="127.215" y="56.253">A</text>
      <text x="127.888" y="41.268">U</text>
      <text x="128.561" y="26.283">C</text>
      <text x="129.234" y="11.298">U</text>
      <text x="129.907" y="-3.686">U</text>
      <text x="132.960" y="-22.826">U</text>
    </g>
  </g>
</svg>
