<?xml version="1.0" encoding="UTF-8" standalone="yes"?>
<svg xmlns="http://www.w3.org/2000/svg" height="452" width="452">
<script type="text/ecmascript">
      <![CDATA[
        var shown = 1;
        function click() {
             var seq = document.getElementById("seq");
             if (shown==1) {
               seq.setAttribute("style", "visibility: hidden");
               shown = 0;
             } else {
               seq.setAttribute("style", "visibility: visible");
               shown = 1;
             }
         }
        ]]>
</script>
  <rect style="stroke: white; fill: white" height="452" x="0" y="0" width="452" onclick="click(evt)" />
  <g transform="scale(1.567094,1.567094) translate(52.577858,38.776672)">
    <polyline style="stroke: black; fill: none; stroke-width: 1.5" id="outline" points="
      108.999,-15.334
      108.306,-0.350
      107.613,14.634
      106.920,29.618
      106.228,44.602
      105.535,59.586
      104.842,74.570
      87.454,78.459
      74.836,89.694
      69.579,104.777
      54.595,105.470
      39.611,106.163
      24.627,106.855
      15.042,94.653
      0.106,90.447
      -14.438,95.856
      -22.998,108.798
      -22.281,124.299
      -12.564,136.397
      2.417,140.440
      16.902,134.874
      25.320,121.839
      40.304,121.147
      55.288,120.454
      70.272,119.761
      79.633,134.284
      95.310,141.549
      96.694,156.485
      98.078,171.421
      99.462,186.357
      100.846,201.293
      89.718,212.279
      88.306,227.853
      97.277,240.661
      112.396,244.655
      126.524,237.951
      132.989,223.712
      128.740,208.663
      115.782,199.909
      114.398,184.973
      113.014,170.037
      111.630,155.101
      110.246,140.165
      119.375,136.531
      127.199,130.035
      132.819,121.149
      135.508,110.628
      134.800,99.447
      149.402,96.013
      164.004,92.579
      178.605,89.145
      194.143,94.390
      206.274,83.356
      202.519,67.392
      186.741,62.922
      175.171,74.543
      160.569,77.977
      145.968,81.411
      131.366,84.846
      119.826,75.263
      120.519,60.279
      121.212,45.295
      121.904,30.311
      122.597,15.327
      123.290,0.343
      123.983,-14.641
      127.061,-33.777
    " />
    <g style="stroke: black; stroke-width: 1" id="pairs">
      <line id="1,66" x1="108.999" y1="-15.334" x2="123.983" y2="-14.641" />
      <line id="2,65" x1="108.306" y1="-0.350" x2="123.290" y2=" 0.343" />
      <line id="3,64" x1="107.613" y1="14.634" x2="122.597" y2="15.327" />
      <line id="4,63" x1="106.920" y1="29.618" x2="121.904" y2="30.311" />
      <line id="5,62" x1="106.228" y1="44.602" x2="121.212" y2="45.295" />
      <line id="6,61" x1="105.535" y1="59.586" x2="120.519" y2="60.279" />
      <line id="7,60" x1="104.842" y1="74.570" x2="119.826" y2="75.263" />
      <line id="10,25" x1="69.579" y1="104.777" x2="70.272" y2="119.761" />
      <line id="11,24" x1="54.595" y1="105.470" x2="55.288" y2="120.454" />
      <line id="12,23" x1="39.611" y1="106.163" x2="40.304" y2="121.147" />
      <line id="13,22" x1="24.627" y1="106.855" x2="25.320" y2="121.839" />
      <line id="27,43" x1="95.310" y1="141.549" x2="110.246" y2="140.165" />
      <line id="28,42" x1="96.694" y1="156.485" x2="111.630" y2="155.101" />
      <line id="29,41" x1="98.078" y1="171.421" x2="113.014" y2="170.037" />
      <line id="30,40" x1="99.462" y1="186.357" x2="114.398" y2="184.973" />
      <line id="31,39" x1="100.846" y1="201.293" x2="115.782" y2="199.909" />
      <line id="48,59" x1="134.800" y1="99.447" x2="131.366" y2="84.846" />
      <line id="49,58" x1="149.402" y1="96.013" x2="145.968" y2="81.411" />
      <line id="50,57" x1="164.004" y1="92.579" x2="160.569" y2="77.977" />
      <line id="51,56" x1="178.605" y1="89.145" x2="175.171" y2="74.543" />
    </g>
    <g style="font-family: SansSerif" transform="translate(-4.6, 4)" id="seq">
      <text x="108.999" y="-15.334">A</text>
      <text x="108.306" y="-0.350">A</text>
      <text x="107.613" y="14.634">A</text>
      <text x="106.920" y="29.618">A</text>
      <text x="106.228" y="44.602">U</text>
      <text x="105.535" y="59.586">G</text>
      <text x="104.842" y="74.570">U</text>
      <text x="87.454" y="78.459">U</text>
      <text x="74.836" y="89.694">A</text>
      <text x="69.579" y="104.777">A</text>
      <text x="54.595" y="105.470">G</text>
      <text x="39.611" y="106.163">U</text>
      <text x="24.627" y="106.855">U</text>
      <text x="15.042" y="94.653">A</text>
      <text x="0.106" y="90.447">A</text>
      <text x="-14.438" y="95.856">A</text>
      <text x="-22.998" y="108.798">U</text>
      <text x="-22.281" y="124.299">A</text>
      <text x="-12.564" y="136.397">A</text>
      <text x="2.417" y="140.440">U</text>
      <text x="16.902" y="134.874">A</text>
      <text x="25.320" y="121.839">A</text>
      <text x="40.304" y="121.147">A</text>
      <text x="55.288" y="120.454">C</text>
      <text x="70.272" y="119.761">U</text>
      <text x="79.633" y="134.284">A</text>
      <text x="95.310" y="141.549">A</text>
      <text x="96.694" y="156.485">A</text>
      <text x="98.078" y="171.421">A</text>
      <text x="99.462" y="186.357">A</text>
      <text x="100.846" y="201.293">C</text>
      <text x="89.718" y="212.279">C</text>
      <text x="88.306" y="227.853">U</text>
      <text x="97.277" y="240.661">U</text>
      <text x="112.396" y="244.655">C</text>
      <text x="126.524" y="237.951">A</text>
      <text x="132.989" y="223.712">A</text>
      <text x="128.740" y="208.663">A</text>
      <text x="115.782" y="199.909">G</text>
      <text x="114.398" y="184.973">U</text>
      <text x="113.014" y="170.037">U</text>
      <text x="111.630" y="155.101">U</text>
      <text x="110.246" y="140.165">U</text>
      <text x="119.375" y="136.531">A</text>
      <text x="127.199" y="130.035">A</text>
      <text x="132.819" y="121.149">A</text>
      <text x="135.508" y="110.628">U</text>
      <text x="134.800" y="99.447">G</text>
      <text x="149.402" y="96.013">A</text>
      <text x="164.004" y="92.579">U</text>
      <text x="178.605" y="89.145">C</text>
      <text x="194.143" y="94.390">U</text>
      <text x="206.274" y="83.356">G</text>
      <text x="202.519" y="67.392">U</text>
      <text x="186.741" y="62.922">U</text>
      <text x="175.171" y="74.543">G</text>
      <text x="160.569" y="77.977">A</text>
      <text x="145.968" y="81.411">U</text>
      <text x="131.366" y="84.846">U</text>
      <text x="119.826" y="75.263">A</text>
      <text x="120.519" y="60.279">C</text>
      <text x="121.212" y="45.295">A</text>
      <text x="121.904" y="30.311">U</text>
      <text x="122.597" y="15.327">U</text>
      <text x="123.290" y="0.343">U</text>
      <text x="123.983" y="-14.641">U</text>
      <text x="127.061" y="-33.777">G</text>
    </g>
  </g>
</svg>
