<?xml version="1.0" encoding="UTF-8" standalone="yes"?>
<svg xmlns="http://www.w3.org/2000/svg" height="452" width="452">
<script type="text/ecmascript">
      <![CDATA[
        var shown = 1;
        function click() {
             var seq = document.getElementById("seq");
             if (shown==1) {
               seq.setAttribute("style", "visibility: hidden");
               shown = 0;
             } else {
               seq.setAttribute("style", "visibility: visible");
               shown = 1;
             }
         }
        ]]>
</script>
  <rect style="stroke: white; fill: white" height="452" x="0" y="0" width="452" onclick="click(evt)" />
  <g transform="scale(1.568308,1.568308) translate(45.494568,39.056206)">
    <polyline style="stroke: black; fill: none; stroke-width: 1.5" id="outline" points="
      110.467,-15.652
      109.742,-0.669
      109.018,14.313
      108.293,29.296
      107.568,44.278
      106.843,59.261
      106.119,74.243
      89.096,77.316
      76.273,87.566
      70.220,101.874
      55.225,101.512
      40.229,101.149
      25.233,100.787
      13.170,90.211
      -2.594,93.189
      -9.966,107.438
      -3.291,122.027
      12.311,125.764
      24.871,115.783
      39.867,116.145
      54.862,116.507
      69.858,116.870
      77.377,131.136
      91.061,139.669
      90.336,154.651
      89.611,169.634
      88.887,184.616
      88.162,199.599
      75.603,208.915
      72.020,224.137
      79.107,238.077
      93.516,244.152
      108.444,239.496
      116.842,226.305
      114.746,210.808
      103.145,200.323
      103.869,185.341
      104.594,170.358
      105.319,155.376
      106.043,140.393
      116.162,137.703
      125.125,131.622
      131.797,122.636
      135.244,111.609
      134.854,99.701
      149.640,97.175
      164.426,94.650
      179.212,92.125
      194.396,98.320
      207.186,88.056
      204.425,71.891
      188.953,66.454
      176.687,77.339
      161.901,79.864
      147.115,82.389
      132.329,84.915
      121.101,74.968
      121.826,59.985
      122.551,45.003
      123.275,30.020
      124.000,15.038
      124.725,0.055
      125.449,-14.927
      128.568,-34.056
    " />
    <g style="stroke: black; stroke-width: 1" id="pairs">
      <line id="1,63" x1="110.467" y1="-15.652" x2="125.449" y2="-14.927" />
      <line id="2,62" x1="109.742" y1="-0.669" x2="124.725" y2=" 0.055" />
      <line id="3,61" x1="109.018" y1="14.313" x2="124.000" y2="15.038" />
      <line id="4,60" x1="108.293" y1="29.296" x2="123.275" y2="30.020" />
      <line id="5,59" x1="107.568" y1="44.278" x2="122.551" y2="45.003" />
      <line id="6,58" x1="106.843" y1="59.261" x2="121.826" y2="59.985" />
      <line id="7,57" x1="106.119" y1="74.243" x2="121.101" y2="74.968" />
      <line id="10,22" x1="70.220" y1="101.874" x2="69.858" y2="116.870" />
      <line id="11,21" x1="55.225" y1="101.512" x2="54.862" y2="116.507" />
      <line id="12,20" x1="40.229" y1="101.149" x2="39.867" y2="116.145" />
      <line id="13,19" x1="25.233" y1="100.787" x2="24.871" y2="115.783" />
      <line id="24,40" x1="91.061" y1="139.669" x2="106.043" y2="140.393" />
      <line id="25,39" x1="90.336" y1="154.651" x2="105.319" y2="155.376" />
      <line id="26,38" x1="89.611" y1="169.634" x2="104.594" y2="170.358" />
      <line id="27,37" x1="88.887" y1="184.616" x2="103.869" y2="185.341" />
      <line id="28,36" x1="88.162" y1="199.599" x2="103.145" y2="200.323" />
      <line id="45,56" x1="134.854" y1="99.701" x2="132.329" y2="84.915" />
      <line id="46,55" x1="149.640" y1="97.175" x2="147.115" y2="82.389" />
      <line id="47,54" x1="164.426" y1="94.650" x2="161.901" y2="79.864" />
      <line id="48,53" x1="179.212" y1="92.125" x2="176.687" y2="77.339" />
    </g>
    <g style="font-family: SansSerif" transform="translate(-4.6, 4)" id="seq">
      <text x="110.467" y="-15.652">U</text>
      <text x="109.742" y="-0.669">A</text>
      <text x="109.018" y="14.313">U</text>
      <text x="108.293" y="29.296">A</text>
      <text x="107.568" y="44.278">U</text>
      <text x="106.843" y="59.261">A</text>
      <text x="106.119" y="74.243">A</text>
      <text x="89.096" y="77.316">U</text>
      <text x="76.273" y="87.566">A</text>
      <text x="70.220" y="101.874">A</text>
      <text x="55.225" y="101.512">U</text>
      <text x="40.229" y="101.149">U</text>
      <text x="25.233" y="100.787">U</text>
      <text x="13.170" y="90.211">A</text>
      <text x="-2.594" y="93.189">A</text>
      <text x="-9.966" y="107.438">A</text>
      <text x="-3.291" y="122.027">A</text>
      <text x="12.311" y="125.764">A</text>
      <text x="24.871" y="115.783">A</text>
      <text x="39.867" y="116.145">A</text>
      <text x="54.862" y="116.507">A</text>
      <text x="69.858" y="116.870">U</text>
      <text x="77.377" y="131.136">G</text>
      <text x="91.061" y="139.669">U</text>
      <text x="90.336" y="154.651">U</text>
      <text x="89.611" y="169.634">A</text>
      <text x="88.887" y="184.616">A</text>
      <text x="88.162" y="199.599">A</text>
      <text x="75.603" y="208.915">U</text>
      <text x="72.020" y="224.137">U</text>
      <text x="79.107" y="238.077">G</text>
      <text x="93.516" y="244.152">U</text>
      <text x="108.444" y="239.496">A</text>
      <text x="116.842" y="226.305">A</text>
      <text x="114.746" y="210.808">A</text>
      <text x="103.145" y="200.323">U</text>
      <text x="103.869" y="185.341">U</text>
      <text x="104.594" y="170.358">U</text>
      <text x="105.319" y="155.376">A</text>
      <text x="106.043" y="140.393">A</text>
      <text x="116.162" y="137.703">A</text>
      <text x="125.125" y="131.622">C</text>
      <text x="131.797" y="122.636">U</text>
      <text x="135.244" y="111.609">U</text>
      <text x="134.854" y="99.701">G</text>
      <text x="149.640" y="97.175">A</text>
      <text x="164.426" y="94.650">G</text>
      <text x="179.212" y="92.125">A</text>
      <text x="194.396" y="98.320">A</text>
      <text x="207.186" y="88.056">U</text>
      <text x="204.425" y="71.891">G</text>
      <text x="188.953" y="66.454">G</text>
      <text x="176.687" y="77.339">U</text>
      <text x="161.901" y="79.864">C</text>
      <text x="147.115" y="82.389">U</text>
      <text x="132.329" y="84.915">C</text>
      <text x="121.101" y="74.968">U</text>
      <text x="121.826" y="59.985">U</text>
      <text x="122.551" y="45.003">A</text>
      <text x="123.275" y="30.020">U</text>
      <text x="124.000" y="15.038">A</text>
      <text x="124.725" y="0.055">U</text>
      <text x="125.449" y="-14.927">A</text>
      <text x="128.568" y="-34.056">A</text>
    </g>
  </g>
</svg>
